<svg  viewBox="0 0 181 45" fill="none" xmlns="http://www.w3.org/2000/svg">
<path d="M11.6104 15.1486C10.0384 15.717 9.17107 15.9005 8.18824 15.9005C6.00189 15.9479 3.8858 15.1272 2.30313 13.6181C0.843169 12.1412 0.0168951 10.153 0 8.07638C0.0143327 5.97479 0.839394 3.95986 2.30313 2.45177C3.05829 1.69861 3.95507 1.10237 4.94176 0.697429C5.92845 0.292491 6.98553 0.0868605 8.05207 0.0923939C9.27565 0.115017 10.4828 0.378574 11.6045 0.867998V5.60451C11.2017 5.07598 10.6801 4.6497 10.082 4.36015C9.48389 4.07061 8.82601 3.92594 8.1616 3.93785C7.15252 3.90016 6.16906 4.26059 5.42331 4.9414C5.00273 5.34242 4.66883 5.82542 4.44225 6.36055C4.21568 6.89568 4.10122 7.47159 4.10596 8.0527C4.10795 9.16367 4.55088 10.2284 5.33746 11.013C6.12104 11.6965 7.1278 12.0693 8.16752 12.061C8.75959 12.061 10.219 11.9929 11.6104 10.4654V15.1486Z" fill="#C94D35"/>
<path d="M28.8331 15.5568V3.71555H23.3861V15.5568H19.4341V0.34375H32.8029V15.5568H28.8331Z" fill="#C94D35"/>
<path d="M39.9407 10.5154V15.548H35.9946V0.34375H42.2912C43.6145 0.34375 44.9822 0.592417 46.1396 1.71142C47.2971 2.83042 47.5547 4.13 47.5547 5.4059C47.5547 6.61667 47.3948 8.0317 46.2077 9.19214C45.0206 10.3526 43.6086 10.5154 42.4215 10.5154H39.9407ZM39.9407 7.32418H41.264C41.6755 7.32418 42.4481 7.27682 42.9307 6.84461C43.1112 6.66376 43.2497 6.4453 43.3362 6.2048C43.4226 5.96431 43.455 5.7077 43.431 5.45326C43.4509 5.20589 43.4209 4.95703 43.3425 4.72154C43.2642 4.48605 43.1392 4.26876 42.9751 4.08263C42.5192 3.60602 41.7909 3.53497 41.2877 3.53497H39.9407V7.32418Z" fill="#C94D35"/>
<path d="M57.803 13.0021H52.282L51.2547 15.5568H47.0688L52.9214 0.34375H57.2316L62.9598 15.5568H58.7384L57.803 13.0021ZM56.755 9.99143L55.044 5.06546L53.3773 9.99143H56.755Z" fill="#C94D35"/>
<path d="M64.5765 1.6434C65.2317 1.20523 65.9362 0.845558 66.6754 0.571765C67.7033 0.183429 68.7945 -0.0103132 69.8932 0.000422956C72.0839 0.000422956 73.2917 0.707939 73.9755 1.36809C74.3612 1.73691 74.6628 2.18469 74.8595 2.68079C75.0562 3.1769 75.1434 3.70963 75.1152 4.24256C75.1401 5.02525 74.9083 5.79459 74.4551 6.4332C74.0995 6.95544 73.611 7.3734 73.04 7.64397V7.71206C73.6664 7.90174 74.2428 8.22835 74.7274 8.66824C75.0775 8.99455 75.3558 9.39028 75.5444 9.83016C75.733 10.27 75.8278 10.7444 75.8227 11.223C75.8282 11.9365 75.6586 12.6405 75.3288 13.2732C74.999 13.906 74.5191 14.4482 73.9311 14.8523C72.5842 15.7878 70.805 15.9003 69.6416 15.9003C68.385 15.9307 67.1352 15.7062 65.9678 15.2401C65.0497 14.849 64.2025 14.3089 63.4604 13.6416L65.4675 10.7671C65.9205 11.2835 66.4606 11.7163 67.0632 12.046C67.6953 12.3821 68.4017 12.5542 69.1176 12.5463C69.6963 12.5625 70.2694 12.4289 70.7813 12.1585C70.9984 12.029 71.1778 11.8451 71.3019 11.6249C71.426 11.4048 71.4905 11.156 71.4888 10.9033C71.4813 10.6716 71.4145 10.4457 71.2947 10.2472C71.175 10.0487 71.0064 9.88425 70.805 9.76948C70.5327 9.5889 70.0057 9.40536 68.9341 9.40536H67.4539V6.34143H68.4367C69.1887 6.34143 70.284 6.22894 70.805 5.70496C71.0565 5.44581 71.1958 5.09804 71.1928 4.73693C71.1849 4.52444 71.1271 4.31678 71.0243 4.13066C70.9215 3.94453 70.7764 3.78514 70.6007 3.6653C70.163 3.39288 69.6536 3.25781 69.1383 3.2775C68.5225 3.27332 67.9143 3.41322 67.3622 3.68602C66.9131 3.9171 66.4928 4.20028 66.1099 4.52971L64.5765 1.6434Z" fill="#C94D35"/>
<path d="M91.403 0.34375V12.5018H93.2295V18.979H89.6771V15.5568H80.4083V18.979H76.856V12.5018C77.5219 12.4093 78.1346 12.0867 78.5877 11.59C79.7304 10.4059 79.911 8.75994 79.911 6.59299V0.34375H91.403ZM83.7387 6.98079C83.7526 8.05661 83.6302 9.12987 83.3746 10.175C83.141 11.0515 82.6852 11.8529 82.0513 12.5018H87.4332V3.3988H83.7387V6.98079Z" fill="#C94D35"/>
<path d="M99.2264 6.02164H104.928V0.34375H108.898V15.5568H104.928V9.39937H99.2264V15.5568H95.2803V0.34375H99.2264V6.02164Z" fill="#C94D35"/>
<path d="M116.062 0.34375V9.92335L121.764 0.34375H125.813V15.5568H121.832V5.97724L116.13 15.5568H112.092V0.34375H116.062Z" fill="#C94D35"/>
<path d="M132.942 6.61667L137.776 0.34375H142.658L136.613 7.55213L143.206 15.545H138.096L132.942 8.9642V15.5568H128.996V0.34375H132.942V6.61667Z" fill="#C94D35"/>
<path d="M157.394 13.6419C155.843 15.122 153.652 15.9006 151.397 15.9006C149.141 15.9006 146.956 15.125 145.396 13.6419C144.638 12.9005 144.036 12.0152 143.625 11.0379C143.213 10.0606 143.001 9.01098 143.001 7.95067C143.001 6.89037 143.213 5.84074 143.625 4.86343C144.036 3.88611 144.638 3.0008 145.396 2.25946C146.947 0.779297 149.138 0.000732422 151.397 0.000732422C153.655 0.000732422 155.837 0.776336 157.394 2.25946C158.152 3.0008 158.755 3.88611 159.166 4.86343C159.577 5.84074 159.789 6.89037 159.789 7.95067C159.789 9.01098 159.577 10.0606 159.166 11.0379C158.755 12.0152 158.152 12.9005 157.394 13.6419ZM148.312 5.03328C147.923 5.42675 147.615 5.8937 147.408 6.40698C147.201 6.92027 147.097 7.46966 147.104 8.0232C147.101 8.55339 147.206 9.07865 147.414 9.56645C147.622 10.0543 147.927 10.4942 148.312 10.8592C148.721 11.2531 149.204 11.5625 149.733 11.7698C150.261 11.977 150.826 12.078 151.394 12.067C151.947 12.0884 152.5 11.9983 153.018 11.8019C153.536 11.6054 154.009 11.3068 154.409 10.9237C154.809 10.5406 155.129 10.0808 155.347 9.57186C155.566 9.06288 155.68 8.51507 155.683 7.96103C155.683 7.41567 155.574 6.87586 155.362 6.37316C155.151 5.87045 154.841 5.41495 154.452 5.03328C153.616 4.27263 152.527 3.85049 151.397 3.84915C150.254 3.82742 149.147 4.2522 148.312 5.03328Z" fill="#C94D35"/>
<path d="M161.615 15.5568L164.191 0.34375H168.092L171.171 8.46391L174.427 0.34375H178.374L180.656 15.5568H176.731L175.597 6.80909L171.926 15.5687H170.351L166.837 6.80909L165.538 15.5687L161.615 15.5568Z" fill="#C94D35"/>
<path d="M10.0826 41.2497V29.4085H4.6297V41.2497H0.683594V26.0337H14.0524V41.2497H10.0826Z" fill="#C94D35"/>
<path d="M30.9558 39.3313C29.4046 40.8115 27.214 41.5901 24.9553 41.5901C22.6966 41.5901 20.5148 40.8145 18.9547 39.3313C18.1966 38.59 17.5943 37.7047 17.1831 36.7274C16.7719 35.7501 16.5601 34.7004 16.5601 33.6401C16.5601 32.5798 16.7719 31.5302 17.1831 30.5529C17.5943 29.5756 18.1966 28.6903 18.9547 27.9489C20.5059 26.4688 22.6966 25.6902 24.9553 25.6902C27.214 25.6902 29.3958 26.4658 30.9558 27.9489C31.7139 28.6903 32.3162 29.5756 32.7275 30.5529C33.1387 31.5302 33.3505 32.5798 33.3505 33.6401C33.3505 34.7004 33.1387 35.7501 32.7275 36.7274C32.3162 37.7047 31.7139 38.59 30.9558 39.3313ZM21.8765 30.7316C21.4861 31.1244 21.1779 31.5912 20.97 32.1046C20.7621 32.618 20.6587 33.1677 20.6658 33.7215C20.6633 34.2506 20.7694 34.7745 20.9777 35.2608C21.186 35.7471 21.4919 36.1854 21.8765 36.5486C22.2847 36.9433 22.7668 37.2534 23.2951 37.4612C23.8235 37.6689 24.3877 37.7703 24.9553 37.7594C25.5084 37.7788 26.0598 37.6872 26.5769 37.49C27.0941 37.2929 27.5665 36.9941 27.9663 36.6114C28.3661 36.2287 28.6852 35.7698 28.9048 35.2618C29.1244 34.7537 29.24 34.2069 29.2448 33.6534C29.2434 33.1091 29.1339 32.5705 28.9225 32.0689C28.711 31.5673 28.402 31.1127 28.0133 30.7316C27.18 29.9622 26.0895 29.5314 24.9553 29.5238C23.8107 29.5087 22.7056 29.9423 21.8765 30.7316Z" fill="#C94D35"/>
<path d="M35.8584 26.0337H45.7577V29.3848H39.8371V32.0106H41.3883C43.3273 32.0106 45.062 32.3066 46.2018 33.4907C46.9678 34.3832 47.3812 35.5248 47.3643 36.7008C47.3474 37.8768 46.9013 39.0061 46.11 39.8761C44.9022 41.0603 43.0757 41.2468 41.2521 41.2468H35.8584V26.0337ZM41.187 38.171C41.6221 38.171 42.4658 38.1503 42.9454 37.647C43.2044 37.351 43.3428 36.9686 43.3332 36.5754C43.3405 36.3642 43.3038 36.1537 43.2253 35.9575C43.1468 35.7613 43.0283 35.5836 42.8773 35.4357C42.4185 35.0479 41.6932 35.0242 41.187 35.0242H39.8193V38.171H41.187Z" fill="#C94D35"/>
<path d="M58.5109 29.3848H53.8099V31.9188H58.2504V35.2728H53.8099V37.8927H58.5109V41.2468H49.8638V26.0337H58.5109V29.3848Z" fill="#C94D35"/>
<path d="M74.3631 26.0337V38.1888H76.1896V44.6659H72.6372V41.2497H63.3685V44.6689H59.7983V38.1888C60.4643 38.0963 61.077 37.7737 61.5301 37.277C62.6728 36.0929 62.8534 34.4469 62.8534 32.28V26.0337H74.3631ZM66.6988 32.6707C66.7142 33.7466 66.5919 34.8201 66.3347 35.8649C66.103 36.7422 65.647 37.5441 65.0115 38.1917H70.3933V29.0887H66.6988V32.6707Z" fill="#C94D35"/>
<path d="M78.2417 26.0335H82.2115V31.9541H84.1268C85.3376 31.9541 87.321 32.0459 88.6679 33.3692C89.0773 33.7953 89.3956 34.3004 89.6033 34.8537C89.8109 35.407 89.9036 35.9967 89.8758 36.587C89.8758 37.6113 89.6922 38.7984 88.736 39.7782C87.4335 41.1015 85.4264 41.2406 83.8989 41.2406H78.2417V26.0335ZM83.739 38.1886C84.1712 38.1886 84.9942 38.1886 85.4501 37.7327C85.7301 37.4206 85.8777 37.0119 85.8616 36.5929C85.8751 36.386 85.8432 36.1785 85.768 35.9852C85.6928 35.7919 85.5762 35.6174 85.4264 35.4739C84.9942 35.0625 84.3104 35.018 83.739 35.018H82.2115V38.1886H83.739ZM91.1398 26.0305H95.1096V41.2466H91.1309L91.1398 26.0305Z" fill="#C94D35"/>
<path d="M98.9309 40.9744C98.6021 40.6436 98.3782 40.2231 98.2874 39.7655C98.1967 39.308 98.2431 38.8338 98.4208 38.4026C98.5985 37.9713 98.8996 37.6021 99.2863 37.3413C99.673 37.0805 100.128 36.9397 100.595 36.9365C100.911 36.941 101.223 37.0079 101.513 37.1334C101.803 37.2589 102.065 37.4405 102.285 37.6677C102.713 38.1131 102.95 38.7082 102.946 39.3259C102.941 39.9437 102.696 40.5352 102.261 40.9744C102.046 41.1984 101.787 41.3765 101.501 41.4981C101.215 41.6198 100.907 41.6825 100.596 41.6825C100.285 41.6825 99.9775 41.6198 99.6914 41.4981C99.4052 41.3765 99.1466 41.1984 98.9309 40.9744ZM98.6793 36.0692V26.0337H102.466V36.0692H98.6793Z" fill="#C94D35"/>
</svg>
