<svg width="133" height="153" viewBox="0 0 133 153" fill="none" xmlns="http://www.w3.org/2000/svg">
                    <path d="M133 -24H0V153H133V-24Z" fill="#C94D35"/>
                    <path d="M35.6405 124.45H36.7093V130.654H38.1603V123.198H35.6405V124.45Z" fill="white"/>
                    <path d="M44.036 123.031C42.0476 123.031 41.2116 124.36 41.2116 125.678C41.1952 125.993 41.244 126.309 41.3551 126.606C41.4661 126.902 41.637 127.172 41.857 127.399C42.0771 127.627 42.3417 127.807 42.6344 127.928C42.9271 128.049 43.2416 128.109 43.5583 128.104C43.8465 128.104 44.1315 128.043 44.3943 127.925L42.6328 130.184L43.6419 130.971L45.911 127.931C46.4752 127.282 46.8053 126.464 46.8485 125.606C46.8485 124.247 45.911 123.031 44.036 123.031ZM44.036 126.941C43.763 126.942 43.4957 126.863 43.2681 126.712C43.0405 126.562 42.8627 126.347 42.7574 126.095C42.6521 125.844 42.6239 125.567 42.6765 125.299C42.729 125.032 42.8599 124.786 43.0526 124.593C43.2453 124.4 43.491 124.268 43.7588 124.214C44.0265 124.161 44.3041 124.188 44.5565 124.292C44.8089 124.396 45.0247 124.572 45.1765 124.799C45.3284 125.025 45.4094 125.292 45.4094 125.564C45.4152 125.746 45.3836 125.927 45.3167 126.097C45.2498 126.266 45.149 126.42 45.0204 126.549C44.8918 126.678 44.7381 126.779 44.5688 126.846C44.3996 126.914 44.2183 126.946 44.036 126.941Z" fill="white"/>
                    <path d="M53.5422 123.061H52.2405L48.5443 128.688V129.337H52.1808V130.655H53.5422V129.337H54.414V128.145H53.5422V123.061ZM52.1808 128.169H50.264L52.1808 125.189V128.169Z" fill="white"/>
                    <path d="M58.7671 125.606C58.6008 125.608 58.435 125.624 58.2715 125.654L58.5402 124.462H61.0182V123.222H57.5848L56.701 127.132H56.7906C57.1999 126.819 57.7021 126.651 58.2177 126.655C58.4293 126.63 58.6439 126.65 58.8473 126.713C59.0506 126.777 59.2381 126.883 59.3973 127.024C59.5565 127.166 59.6838 127.34 59.7707 127.534C59.8577 127.728 59.9023 127.938 59.9016 128.151C59.9088 128.347 59.8747 128.541 59.8015 128.723C59.7284 128.904 59.6179 129.068 59.4771 129.204C59.3363 129.34 59.1685 129.445 58.9844 129.512C58.8004 129.579 58.6043 129.607 58.4088 129.594C58.0432 129.587 57.6837 129.499 57.3571 129.334C57.0304 129.17 56.745 128.935 56.5219 128.646L56.0442 129.898C56.3574 130.209 56.7306 130.453 57.1411 130.616C57.5517 130.779 57.991 130.857 58.4327 130.845C60.4868 130.845 61.3466 129.54 61.3466 128.127C61.3675 127.786 61.3146 127.445 61.1916 127.126C61.0686 126.807 60.8783 126.518 60.6336 126.279C60.389 126.04 60.0957 125.856 59.7736 125.74C59.4516 125.624 59.1083 125.578 58.7671 125.606Z" fill="white"/>
                    <path d="M69.3481 126.828H63.4306V127.99H69.3481V126.828Z" fill="white"/>
                    <path d="M75.2118 127.99C75.809 127.364 76.5613 126.542 76.5613 125.386C76.5629 125.052 76.4944 124.722 76.36 124.416C76.2257 124.111 76.0286 123.837 75.7816 123.612C75.5345 123.387 75.2429 123.217 74.9257 123.112C74.6084 123.006 74.2726 122.969 73.94 123.001C73.6026 122.985 73.2654 123.038 72.949 123.156C72.6325 123.274 72.3435 123.455 72.0994 123.688C71.8553 123.921 71.6612 124.201 71.5291 124.511C71.3969 124.822 71.3293 125.156 71.3305 125.493H72.8233C72.8169 125.332 72.843 125.172 72.9002 125.022C72.9573 124.872 73.0442 124.735 73.1558 124.619C73.2673 124.503 73.4012 124.411 73.5493 124.348C73.6974 124.285 73.8567 124.253 74.0176 124.253C74.1656 124.25 74.3128 124.277 74.45 124.332C74.5871 124.388 74.7113 124.471 74.8149 124.577C74.9185 124.683 74.9992 124.808 75.0521 124.946C75.105 125.084 75.1289 125.232 75.1223 125.38C75.0875 125.809 74.9369 126.221 74.6864 126.572C74.4177 126.971 73.5459 127.966 73.4145 128.127L71.2231 130.619H76.5972V129.367H73.9041L75.2118 127.99Z" fill="white"/>
                    <path d="M81.6548 123.031C80.168 123.031 78.7767 124.36 78.7767 126.917C78.7767 129.474 80.168 130.821 81.6548 130.821C83.1417 130.821 84.533 129.492 84.533 126.929C84.533 124.366 83.1237 123.031 81.6548 123.031ZM81.6548 129.588C81.0159 129.588 80.2217 128.884 80.2217 126.935C80.2217 124.986 81.0278 124.301 81.6548 124.301C82.2818 124.301 83.0819 125.004 83.0819 126.935C83.0819 128.866 82.2519 129.57 81.6548 129.57V129.588Z" fill="white"/>
                    <path d="M90.122 127.99C90.7192 127.364 91.4715 126.542 91.4715 125.386C91.4731 125.052 91.4045 124.722 91.2702 124.416C91.1359 124.111 90.9388 123.837 90.6917 123.612C90.4447 123.387 90.1531 123.217 89.8359 123.112C89.5186 123.006 89.1828 122.969 88.8502 123.001C88.5126 122.984 88.175 123.036 87.8582 123.154C87.5414 123.272 87.252 123.453 87.0077 123.686C86.7634 123.919 86.5694 124.2 86.4375 124.51C86.3056 124.821 86.2387 125.155 86.2407 125.493H87.7335C87.7271 125.332 87.7532 125.172 87.8104 125.022C87.8675 124.872 87.9544 124.735 88.066 124.619C88.1775 124.503 88.3114 124.411 88.4595 124.348C88.6076 124.285 88.7668 124.253 88.9278 124.253C89.0758 124.25 89.223 124.277 89.3601 124.332C89.4973 124.388 89.6215 124.471 89.7251 124.577C89.8287 124.683 89.9094 124.808 89.9623 124.946C90.0152 125.084 90.039 125.232 90.0325 125.38C89.9998 125.809 89.849 126.222 89.5966 126.572C89.3279 126.971 88.462 127.966 88.3247 128.127L86.1392 130.619H91.5133V129.367H88.8203L90.122 127.99Z" fill="white"/>
                    <path d="M96.5471 123.031C95.0662 123.031 93.6689 124.36 93.6689 126.917C93.6689 129.474 95.0662 130.821 96.5471 130.821C98.0279 130.821 99.4312 129.492 99.4312 126.929C99.4312 124.366 98.0339 123.031 96.5471 123.031ZM96.5471 129.588C95.9141 129.588 95.1199 128.884 95.1199 126.935C95.1199 124.986 95.9261 124.301 96.5471 124.301C97.1681 124.301 97.9802 125.004 97.9802 126.935C97.9802 128.866 97.18 129.57 96.5471 129.57V129.588Z" fill="white"/>
                    <path d="M37.0318 117.047V103.648H25.2386V117.047H28.7258V106.622H33.5326V117.047H37.0318Z" fill="white"/>
                    <path d="M51.512 115.36C52.1812 114.707 52.7128 113.928 53.0758 113.067C53.4388 112.206 53.6258 111.281 53.6258 110.347C53.6258 109.413 53.4388 108.489 53.0758 107.628C52.7128 106.767 52.1812 105.988 51.512 105.335C50.0485 104.051 48.1668 103.343 46.2185 103.343C44.2702 103.343 42.3886 104.051 40.925 105.335C40.2559 105.988 39.7242 106.767 39.3612 107.628C38.9982 108.489 38.8112 109.413 38.8112 110.347C38.8112 111.281 38.9982 112.206 39.3612 113.067C39.7242 113.928 40.2559 114.707 40.925 115.36C42.3908 116.639 44.2716 117.344 46.2185 117.344C48.1654 117.344 50.0462 116.639 51.512 115.36ZM42.4357 110.419C42.4289 109.931 42.5199 109.446 42.7035 108.994C42.887 108.541 43.1594 108.13 43.5046 107.784C44.2359 107.088 45.211 106.705 46.2215 106.718C47.2212 106.725 48.1819 107.105 48.9145 107.784C49.2599 108.118 49.5346 108.517 49.7223 108.958C49.91 109.399 50.0069 109.874 50.0073 110.353C50.0052 110.841 49.9049 111.323 49.7122 111.772C49.5196 112.22 49.2386 112.625 48.8859 112.962C48.5332 113.3 48.1161 113.563 47.6594 113.737C47.2027 113.91 46.7157 113.99 46.2275 113.971C45.2168 113.991 44.2397 113.609 43.5106 112.91C43.1699 112.591 42.8986 112.205 42.7137 111.776C42.5288 111.348 42.4342 110.886 42.4357 110.419Z" fill="white"/>
                    <path d="M64.4159 115.843C65.1123 115.075 65.5049 114.081 65.5203 113.045C65.5357 112.01 65.1728 111.004 64.4995 110.216C63.4903 109.173 61.9497 108.917 60.2479 108.917H58.8805V106.604H64.1173V103.624H55.3814V117.023H60.1584C61.7407 117.047 63.347 116.886 64.4159 115.843ZM58.8805 114.335V111.563H60.0748C60.5982 111.515 61.123 111.641 61.5676 111.921C61.7008 112.052 61.8052 112.209 61.8741 112.382C61.943 112.556 61.9748 112.742 61.9677 112.928C61.9772 113.274 61.8556 113.61 61.6273 113.87C61.188 114.217 60.6327 114.383 60.0748 114.335H58.8805Z" fill="white"/>
                    <path d="M74.8954 106.598V103.648H67.2701V117.047H74.8954V114.091H70.7513V111.784H74.6744V108.828H70.7513V106.598H74.8954Z" fill="white"/>
                    <path d="M90.3728 120.057V114.353H88.7666V103.624H78.6155V109.125C78.6155 111.033 78.4542 112.481 77.4212 113.524C77.0233 113.965 76.4815 114.25 75.8926 114.329V120.033H79.0334V117.023H87.2021V120.033L90.3728 120.057ZM85.2376 114.353H80.4606C81.0315 113.785 81.4433 113.078 81.6548 112.302C81.8814 111.382 81.9897 110.437 81.9773 109.489V106.336H85.2376V114.353Z" fill="white"/>
                    <path d="M96.4097 103.648L91.2566 117.047H94.9348L95.8425 114.794H100.715L101.539 117.047H105.265L100.213 103.648H96.4097ZM96.8098 112.142L98.2787 107.802L99.7894 112.142H96.8098Z" fill="white"/>
                    <path d="M109.97 113.894C109.777 113.694 109.546 113.534 109.291 113.424C109.036 113.314 108.762 113.254 108.484 113.25C107.957 113.29 107.464 113.527 107.105 113.914C106.745 114.301 106.546 114.809 106.546 115.336C106.546 115.864 106.745 116.372 107.105 116.759C107.464 117.145 107.957 117.382 108.484 117.422C108.758 117.421 109.029 117.365 109.281 117.258C109.534 117.15 109.762 116.993 109.953 116.796C110.151 116.608 110.307 116.38 110.41 116.128C110.513 115.875 110.56 115.603 110.55 115.33C110.559 115.064 110.513 114.798 110.413 114.55C110.313 114.303 110.163 114.079 109.97 113.894Z" fill="white"/>
                    <path d="M110.132 103.648H106.794V112.487H110.132V103.648Z" fill="white"/>
                    <path d="M58.576 67.6352C60.4748 60.0417 64.2726 53.2289 69.0734 47.0838L70.4647 48.7288L72.1008 43.3525L66.6192 44.2466L67.9986 45.8738C60.5883 49.909 43.2717 60.0417 37.8797 84.9263C36.978 89.0986 36.1779 95.7087 36.1779 95.7087C36.1779 95.7087 49.7147 95.8637 57.0772 95.0709C56.9757 85.9396 56.3547 76.4924 58.576 67.6352Z" fill="white"/>
                    <path d="M99.0848 61.4482C96.1649 48.3353 79.4813 48.7883 71.7247 55.7262L70.7454 53.801L67.8672 58.6647L73.4085 59.07L72.4412 57.1746C78.4423 54.8441 88.1217 56.0183 87.0349 64.5893C85.9481 73.1604 72.1008 76.1346 64.601 77.2373V94.2483C65.8191 94.3079 104.56 85.9574 99.0848 61.4482Z" fill="white"/>
                    <path d="M93.3345 39.6155C94.8166 37.6274 96.0219 35.4479 96.9173 33.1365L98.4161 34.6266L99.6103 29.1013L94.2362 30.4603L95.7469 31.9623C95.7469 31.9623 92.6598 33.959 87.0946 35.2465C83.5849 35.9631 80.0175 36.3621 76.436 36.4386C76.1732 37.2551 73.307 46.8395 72.3277 50.1058C80.8248 50.1296 89.6085 44.7474 93.3345 39.6155Z" fill="white"/>
                    <path d="M68.1837 39.8835L67.4015 41.916L72.8652 41.022L69.5153 36.3788L68.745 38.4173C64.6124 35.4998 59.9741 33.3718 55.0649 32.141C50.6641 31.0502 45.284 31.3542 40.0353 32.433V51.6255C55.5904 39.0491 68.1837 39.8835 68.1837 39.8835Z" fill="white"/>
                    </svg>