<svg width="1258" height="1234" viewBox="0 0 1258 1234" fill="none" xmlns="http://www.w3.org/2000/svg">
<path d="M1248.54 2.85933C1248.54 4.34451 1249.71 5.54849 1251.15 5.54849C1252.58 5.54849 1253.75 4.34451 1253.75 2.85933C1253.75 1.37415 1252.58 0.170166 1251.15 0.170166C1249.71 0.170166 1248.54 1.37415 1248.54 2.85933Z" fill="#C94D35"/>
<path d="M1221.45 2.85933C1221.45 4.34451 1222.61 5.54849 1224.05 5.54849C1225.49 5.54849 1226.65 4.34451 1226.65 2.85933C1226.65 1.37415 1225.49 0.170166 1224.05 0.170166C1222.61 0.170166 1221.45 1.37415 1221.45 2.85933Z" fill="#C94D35"/>
<path d="M1194.35 2.85933C1194.35 4.34451 1195.52 5.54849 1196.96 5.54849C1198.39 5.54849 1199.56 4.34451 1199.56 2.85933C1199.56 1.37415 1198.39 0.170166 1196.96 0.170166C1195.52 0.170166 1194.35 1.37415 1194.35 2.85933Z" fill="#C94D35"/>
<path d="M1167.26 2.85933C1167.26 4.34451 1168.43 5.54849 1169.86 5.54849C1171.3 5.54849 1172.46 4.34451 1172.46 2.85933C1172.46 1.37415 1171.3 0.170166 1169.86 0.170166C1168.43 0.170166 1167.26 1.37415 1167.26 2.85933Z" fill="#C94D35"/>
<path d="M1248.54 31.096C1248.54 32.5812 1249.71 33.7852 1251.15 33.7852C1252.58 33.7852 1253.75 32.5812 1253.75 31.096C1253.75 29.6108 1252.58 28.4067 1251.15 28.4067C1249.71 28.4067 1248.54 29.6108 1248.54 31.096Z" fill="#C94D35"/>
<path d="M1221.45 31.096C1221.45 32.5812 1222.61 33.7852 1224.05 33.7852C1225.49 33.7852 1226.65 32.5812 1226.65 31.096C1226.65 29.6108 1225.49 28.4067 1224.05 28.4067C1222.61 28.4067 1221.45 29.6108 1221.45 31.096Z" fill="#C94D35"/>
<path d="M1194.36 31.096C1194.36 32.5812 1195.52 33.7852 1196.96 33.7852C1198.39 33.7852 1199.56 32.5812 1199.56 31.096C1199.56 29.6108 1198.39 28.4067 1196.96 28.4067C1195.52 28.4067 1194.36 29.6108 1194.36 31.096Z" fill="#C94D35"/>
<path d="M1167.26 31.096C1167.26 32.5812 1168.43 33.7852 1169.86 33.7852C1171.3 33.7852 1172.46 32.5812 1172.46 31.096C1172.46 29.6108 1171.3 28.4067 1169.86 28.4067C1168.43 28.4067 1167.26 29.6108 1167.26 31.096Z" fill="#C94D35"/>
<path d="M1248.54 59.3322C1248.54 60.8174 1249.71 62.0214 1251.15 62.0214C1252.58 62.0214 1253.75 60.8174 1253.75 59.3322C1253.75 57.847 1252.58 56.6429 1251.15 56.6429C1249.71 56.6429 1248.54 57.847 1248.54 59.3322Z" fill="#C94D35"/>
<path d="M1221.45 59.3322C1221.45 60.8174 1222.61 62.0214 1224.05 62.0214C1225.49 62.0214 1226.65 60.8174 1226.65 59.3322C1226.65 57.847 1225.49 56.6429 1224.05 56.6429C1222.61 56.6429 1221.45 57.847 1221.45 59.3322Z" fill="#C94D35"/>
<path d="M1194.36 59.3322C1194.36 60.8174 1195.52 62.0214 1196.96 62.0214C1198.39 62.0214 1199.56 60.8174 1199.56 59.3322C1199.56 57.847 1198.39 56.6429 1196.96 56.6429C1195.52 56.6429 1194.36 57.847 1194.36 59.3322Z" fill="#C94D35"/>
<path d="M1167.26 59.3322C1167.26 60.8174 1168.43 62.0214 1169.86 62.0214C1171.3 62.0214 1172.46 60.8174 1172.46 59.3322C1172.46 57.847 1171.3 56.6429 1169.86 56.6429C1168.43 56.6429 1167.26 57.847 1167.26 59.3322Z" fill="#C94D35"/>
<path d="M1248.54 87.569C1248.54 89.0542 1249.71 90.2582 1251.15 90.2582C1252.58 90.2582 1253.75 89.0542 1253.75 87.569C1253.75 86.0838 1252.58 84.8798 1251.15 84.8798C1249.71 84.8798 1248.54 86.0838 1248.54 87.569Z" fill="#C94D35"/>
<path d="M1221.45 87.569C1221.45 89.0542 1222.61 90.2582 1224.05 90.2582C1225.49 90.2582 1226.65 89.0542 1226.65 87.569C1226.65 86.0838 1225.49 84.8798 1224.05 84.8798C1222.61 84.8798 1221.45 86.0838 1221.45 87.569Z" fill="#C94D35"/>
<path d="M1194.36 87.569C1194.36 89.0542 1195.52 90.2582 1196.96 90.2582C1198.39 90.2582 1199.56 89.0542 1199.56 87.569C1199.56 86.0838 1198.39 84.8798 1196.96 84.8798C1195.52 84.8798 1194.36 86.0838 1194.36 87.569Z" fill="#C94D35"/>
<path d="M1167.26 87.569C1167.26 89.0542 1168.43 90.2582 1169.86 90.2582C1171.3 90.2582 1172.46 89.0542 1172.46 87.569C1172.46 86.0838 1171.3 84.8798 1169.86 84.8798C1168.43 84.8798 1167.26 86.0838 1167.26 87.569Z" fill="#C94D35"/>
<path d="M1254.37 1124.59C1254.37 1125.4 1255.01 1126.06 1255.79 1126.06C1256.57 1126.06 1257.21 1125.4 1257.21 1124.59C1257.21 1123.79 1256.57 1123.13 1255.79 1123.13C1255.01 1123.13 1254.37 1123.79 1254.37 1124.59Z" fill="#888888"/>
<path d="M1239.62 1124.59C1239.62 1125.4 1240.26 1126.06 1241.04 1126.06C1241.82 1126.06 1242.46 1125.4 1242.46 1124.59C1242.46 1123.79 1241.82 1123.13 1241.04 1123.13C1240.26 1123.13 1239.62 1123.79 1239.62 1124.59Z" fill="#888888"/>
<path d="M1224.87 1124.59C1224.87 1125.4 1225.51 1126.06 1226.29 1126.06C1227.07 1126.06 1227.71 1125.4 1227.71 1124.59C1227.71 1123.79 1227.07 1123.13 1226.29 1123.13C1225.51 1123.13 1224.87 1123.79 1224.87 1124.59Z" fill="#888888"/>
<path d="M1210.12 1124.59C1210.12 1125.4 1210.76 1126.06 1211.54 1126.06C1212.32 1126.06 1212.95 1125.4 1212.95 1124.59C1212.95 1123.79 1212.32 1123.13 1211.54 1123.13C1210.76 1123.13 1210.12 1123.79 1210.12 1124.59Z" fill="#888888"/>
<path d="M1195.25 1124.59C1195.25 1125.4 1195.89 1126.06 1196.67 1126.06C1197.45 1126.06 1198.08 1125.4 1198.08 1124.59C1198.08 1123.79 1197.45 1123.13 1196.67 1123.13C1195.89 1123.13 1195.25 1123.79 1195.25 1124.59Z" fill="#888888"/>
<path d="M1180.5 1124.59C1180.5 1125.4 1181.14 1126.06 1181.92 1126.06C1182.7 1126.06 1183.33 1125.4 1183.33 1124.59C1183.33 1123.79 1182.7 1123.13 1181.92 1123.13C1181.14 1123.13 1180.5 1123.79 1180.5 1124.59Z" fill="#888888"/>
<path d="M1165.75 1124.59C1165.75 1125.4 1166.39 1126.06 1167.17 1126.06C1167.95 1126.06 1168.58 1125.4 1168.58 1124.59C1168.58 1123.79 1167.95 1123.13 1167.17 1123.13C1166.39 1123.13 1165.75 1123.79 1165.75 1124.59Z" fill="#888888"/>
<path d="M1151 1124.59C1151 1125.4 1151.63 1126.06 1152.42 1126.06C1153.2 1126.06 1153.83 1125.4 1153.83 1124.59C1153.83 1123.79 1153.2 1123.13 1152.42 1123.13C1151.63 1123.13 1151 1123.79 1151 1124.59Z" fill="#888888"/>
<path d="M1254.37 1139.97C1254.37 1140.78 1255.01 1141.43 1255.79 1141.43C1256.57 1141.43 1257.21 1140.78 1257.21 1139.97C1257.21 1139.16 1256.57 1138.5 1255.79 1138.5C1255.01 1138.5 1254.37 1139.16 1254.37 1139.97Z" fill="#888888"/>
<path d="M1239.62 1139.97C1239.62 1140.78 1240.26 1141.43 1241.04 1141.43C1241.82 1141.43 1242.46 1140.78 1242.46 1139.97C1242.46 1139.16 1241.82 1138.5 1241.04 1138.5C1240.26 1138.5 1239.62 1139.16 1239.62 1139.97Z" fill="#888888"/>
<path d="M1224.87 1139.97C1224.87 1140.78 1225.51 1141.43 1226.29 1141.43C1227.07 1141.43 1227.71 1140.78 1227.71 1139.97C1227.71 1139.16 1227.07 1138.5 1226.29 1138.5C1225.51 1138.5 1224.87 1139.16 1224.87 1139.97Z" fill="#888888"/>
<path d="M1210.12 1139.97C1210.12 1140.78 1210.76 1141.43 1211.54 1141.43C1212.32 1141.43 1212.95 1140.78 1212.95 1139.97C1212.95 1139.16 1212.32 1138.5 1211.54 1138.5C1210.76 1138.5 1210.12 1139.16 1210.12 1139.97Z" fill="#888888"/>
<path d="M1195.25 1139.97C1195.25 1140.78 1195.89 1141.43 1196.67 1141.43C1197.45 1141.43 1198.08 1140.78 1198.08 1139.97C1198.08 1139.16 1197.45 1138.5 1196.67 1138.5C1195.89 1138.5 1195.25 1139.16 1195.25 1139.97Z" fill="#888888"/>
<path d="M1180.5 1139.97C1180.5 1140.78 1181.14 1141.43 1181.92 1141.43C1182.7 1141.43 1183.33 1140.78 1183.33 1139.97C1183.33 1139.16 1182.7 1138.5 1181.92 1138.5C1181.14 1138.5 1180.5 1139.16 1180.5 1139.97Z" fill="#888888"/>
<path d="M1165.75 1139.97C1165.75 1140.78 1166.39 1141.43 1167.17 1141.43C1167.95 1141.43 1168.58 1140.78 1168.58 1139.97C1168.58 1139.16 1167.95 1138.5 1167.17 1138.5C1166.39 1138.5 1165.75 1139.16 1165.75 1139.97Z" fill="#888888"/>
<path d="M1151 1139.97C1151 1140.78 1151.63 1141.43 1152.42 1141.43C1153.2 1141.43 1153.83 1140.78 1153.83 1139.97C1153.83 1139.16 1153.2 1138.5 1152.42 1138.5C1151.63 1138.5 1151 1139.16 1151 1139.97Z" fill="#888888"/>
<path d="M1254.37 1155.34C1254.37 1156.15 1255.01 1156.8 1255.79 1156.8C1256.57 1156.8 1257.21 1156.15 1257.21 1155.34C1257.21 1154.53 1256.57 1153.88 1255.79 1153.88C1255.01 1153.88 1254.37 1154.53 1254.37 1155.34Z" fill="#888888"/>
<path d="M1239.62 1155.34C1239.62 1156.15 1240.26 1156.8 1241.04 1156.8C1241.82 1156.8 1242.46 1156.15 1242.46 1155.34C1242.46 1154.53 1241.82 1153.88 1241.04 1153.88C1240.26 1153.88 1239.62 1154.53 1239.62 1155.34Z" fill="#888888"/>
<path d="M1224.87 1155.34C1224.87 1156.15 1225.51 1156.8 1226.29 1156.8C1227.07 1156.8 1227.71 1156.15 1227.71 1155.34C1227.71 1154.53 1227.07 1153.88 1226.29 1153.88C1225.51 1153.88 1224.87 1154.53 1224.87 1155.34Z" fill="#888888"/>
<path d="M1210.12 1155.34C1210.12 1156.15 1210.76 1156.8 1211.54 1156.8C1212.32 1156.8 1212.95 1156.15 1212.95 1155.34C1212.95 1154.53 1212.32 1153.88 1211.54 1153.88C1210.76 1153.88 1210.12 1154.53 1210.12 1155.34Z" fill="#888888"/>
<path d="M1195.25 1155.34C1195.25 1156.15 1195.89 1156.8 1196.67 1156.8C1197.45 1156.8 1198.08 1156.15 1198.08 1155.34C1198.08 1154.53 1197.45 1153.88 1196.67 1153.88C1195.89 1153.88 1195.25 1154.53 1195.25 1155.34Z" fill="#888888"/>
<path d="M1180.5 1155.34C1180.5 1156.15 1181.14 1156.8 1181.92 1156.8C1182.7 1156.8 1183.33 1156.15 1183.33 1155.34C1183.33 1154.53 1182.7 1153.88 1181.92 1153.88C1181.14 1153.88 1180.5 1154.53 1180.5 1155.34Z" fill="#888888"/>
<path d="M1165.75 1155.34C1165.75 1156.15 1166.39 1156.8 1167.17 1156.8C1167.95 1156.8 1168.58 1156.15 1168.58 1155.34C1168.58 1154.53 1167.95 1153.88 1167.17 1153.88C1166.39 1153.88 1165.75 1154.53 1165.75 1155.34Z" fill="#888888"/>
<path d="M1151 1155.34C1151 1156.15 1151.63 1156.8 1152.42 1156.8C1153.2 1156.8 1153.83 1156.15 1153.83 1155.34C1153.83 1154.53 1153.2 1153.88 1152.42 1153.88C1151.63 1153.88 1151 1154.53 1151 1155.34Z" fill="#888888"/>
<path d="M1254.37 1170.71C1254.37 1171.52 1255.01 1172.18 1255.79 1172.18C1256.57 1172.18 1257.21 1171.52 1257.21 1170.71C1257.21 1169.9 1256.57 1169.25 1255.79 1169.25C1255.01 1169.25 1254.37 1169.9 1254.37 1170.71Z" fill="#888888"/>
<path d="M1239.62 1170.71C1239.62 1171.52 1240.26 1172.18 1241.04 1172.18C1241.82 1172.18 1242.46 1171.52 1242.46 1170.71C1242.46 1169.9 1241.82 1169.25 1241.04 1169.25C1240.26 1169.25 1239.62 1169.9 1239.62 1170.71Z" fill="#888888"/>
<path d="M1224.87 1170.71C1224.87 1171.52 1225.51 1172.18 1226.29 1172.18C1227.07 1172.18 1227.71 1171.52 1227.71 1170.71C1227.71 1169.9 1227.07 1169.25 1226.29 1169.25C1225.51 1169.25 1224.87 1169.9 1224.87 1170.71Z" fill="#888888"/>
<path d="M1210.12 1170.71C1210.12 1171.52 1210.76 1172.18 1211.54 1172.18C1212.32 1172.18 1212.95 1171.52 1212.95 1170.71C1212.95 1169.9 1212.32 1169.25 1211.54 1169.25C1210.76 1169.25 1210.12 1169.9 1210.12 1170.71Z" fill="#888888"/>
<path d="M1195.25 1170.71C1195.25 1171.52 1195.89 1172.18 1196.67 1172.18C1197.45 1172.18 1198.08 1171.52 1198.08 1170.71C1198.08 1169.9 1197.45 1169.25 1196.67 1169.25C1195.89 1169.25 1195.25 1169.9 1195.25 1170.71Z" fill="#888888"/>
<path d="M1180.5 1170.71C1180.5 1171.52 1181.14 1172.18 1181.92 1172.18C1182.7 1172.18 1183.33 1171.52 1183.33 1170.71C1183.33 1169.9 1182.7 1169.25 1181.92 1169.25C1181.14 1169.25 1180.5 1169.9 1180.5 1170.71Z" fill="#888888"/>
<path d="M1165.75 1170.71C1165.75 1171.52 1166.39 1172.18 1167.17 1172.18C1167.95 1172.18 1168.58 1171.52 1168.58 1170.71C1168.58 1169.9 1167.95 1169.25 1167.17 1169.25C1166.39 1169.25 1165.75 1169.9 1165.75 1170.71Z" fill="#888888"/>
<path d="M1151 1170.71C1151 1171.52 1151.63 1172.18 1152.42 1172.18C1153.2 1172.18 1153.83 1171.52 1153.83 1170.71C1153.83 1169.9 1153.2 1169.25 1152.42 1169.25C1151.63 1169.25 1151 1169.9 1151 1170.71Z" fill="#888888"/>
<path d="M1254.37 1186.21C1254.37 1187.02 1255.01 1187.67 1255.79 1187.67C1256.57 1187.67 1257.21 1187.02 1257.21 1186.21C1257.21 1185.4 1256.57 1184.74 1255.79 1184.74C1255.01 1184.74 1254.37 1185.4 1254.37 1186.21Z" fill="#888888"/>
<path d="M1239.62 1186.21C1239.62 1187.02 1240.26 1187.67 1241.04 1187.67C1241.82 1187.67 1242.46 1187.02 1242.46 1186.21C1242.46 1185.4 1241.82 1184.74 1241.04 1184.74C1240.26 1184.74 1239.62 1185.4 1239.62 1186.21Z" fill="#888888"/>
<path d="M1224.87 1186.21C1224.87 1187.02 1225.51 1187.67 1226.29 1187.67C1227.07 1187.67 1227.71 1187.02 1227.71 1186.21C1227.71 1185.4 1227.07 1184.74 1226.29 1184.74C1225.51 1184.74 1224.87 1185.4 1224.87 1186.21Z" fill="#888888"/>
<path d="M1210.12 1186.21C1210.12 1187.02 1210.76 1187.67 1211.54 1187.67C1212.32 1187.67 1212.95 1187.02 1212.95 1186.21C1212.95 1185.4 1212.32 1184.74 1211.54 1184.74C1210.76 1184.74 1210.12 1185.4 1210.12 1186.21Z" fill="#888888"/>
<path d="M1195.25 1186.21C1195.25 1187.02 1195.89 1187.67 1196.67 1187.67C1197.45 1187.67 1198.08 1187.02 1198.08 1186.21C1198.08 1185.4 1197.45 1184.74 1196.67 1184.74C1195.89 1184.74 1195.25 1185.4 1195.25 1186.21Z" fill="#888888"/>
<path d="M1180.5 1186.21C1180.5 1187.02 1181.14 1187.67 1181.92 1187.67C1182.7 1187.67 1183.33 1187.02 1183.33 1186.21C1183.33 1185.4 1182.7 1184.74 1181.92 1184.74C1181.14 1184.74 1180.5 1185.4 1180.5 1186.21Z" fill="#888888"/>
<path d="M1165.75 1186.21C1165.75 1187.02 1166.39 1187.67 1167.17 1187.67C1167.95 1187.67 1168.58 1187.02 1168.58 1186.21C1168.58 1185.4 1167.95 1184.74 1167.17 1184.74C1166.39 1184.74 1165.75 1185.4 1165.75 1186.21Z" fill="#888888"/>
<path d="M1151 1186.21C1151 1187.02 1151.63 1187.67 1152.42 1187.67C1153.2 1187.67 1153.83 1187.02 1153.83 1186.21C1153.83 1185.4 1153.2 1184.74 1152.42 1184.74C1151.63 1184.74 1151 1185.4 1151 1186.21Z" fill="#888888"/>
<path d="M1254.37 1201.58C1254.37 1202.39 1255.01 1203.04 1255.79 1203.04C1256.57 1203.04 1257.21 1202.39 1257.21 1201.58C1257.21 1200.77 1256.57 1200.12 1255.79 1200.12C1255.01 1200.12 1254.37 1200.77 1254.37 1201.58Z" fill="#888888"/>
<path d="M1239.62 1201.58C1239.62 1202.39 1240.26 1203.04 1241.04 1203.04C1241.82 1203.04 1242.46 1202.39 1242.46 1201.58C1242.46 1200.77 1241.82 1200.12 1241.04 1200.12C1240.26 1200.12 1239.62 1200.77 1239.62 1201.58Z" fill="#888888"/>
<path d="M1224.87 1201.58C1224.87 1202.39 1225.51 1203.04 1226.29 1203.04C1227.07 1203.04 1227.71 1202.39 1227.71 1201.58C1227.71 1200.77 1227.07 1200.12 1226.29 1200.12C1225.51 1200.12 1224.87 1200.77 1224.87 1201.58Z" fill="#888888"/>
<path d="M1210.12 1201.58C1210.12 1202.39 1210.76 1203.04 1211.54 1203.04C1212.32 1203.04 1212.95 1202.39 1212.95 1201.58C1212.95 1200.77 1212.32 1200.12 1211.54 1200.12C1210.76 1200.12 1210.12 1200.77 1210.12 1201.58Z" fill="#888888"/>
<path d="M1195.25 1201.58C1195.25 1202.39 1195.89 1203.04 1196.67 1203.04C1197.45 1203.04 1198.08 1202.39 1198.08 1201.58C1198.08 1200.77 1197.45 1200.12 1196.67 1200.12C1195.89 1200.12 1195.25 1200.77 1195.25 1201.58Z" fill="#888888"/>
<path d="M1180.5 1201.58C1180.5 1202.39 1181.14 1203.04 1181.92 1203.04C1182.7 1203.04 1183.33 1202.39 1183.33 1201.58C1183.33 1200.77 1182.7 1200.12 1181.92 1200.12C1181.14 1200.12 1180.5 1200.77 1180.5 1201.58Z" fill="#888888"/>
<path d="M1165.75 1201.58C1165.75 1202.39 1166.39 1203.04 1167.17 1203.04C1167.95 1203.04 1168.58 1202.39 1168.58 1201.58C1168.58 1200.77 1167.95 1200.12 1167.17 1200.12C1166.39 1200.12 1165.75 1200.77 1165.75 1201.58Z" fill="#888888"/>
<path d="M1151 1201.58C1151 1202.39 1151.63 1203.04 1152.42 1203.04C1153.2 1203.04 1153.83 1202.39 1153.83 1201.58C1153.83 1200.77 1153.2 1200.12 1152.42 1200.12C1151.63 1200.12 1151 1200.77 1151 1201.58Z" fill="#888888"/>
<path d="M1254.37 1216.95C1254.37 1217.76 1255.01 1218.42 1255.79 1218.42C1256.57 1218.42 1257.21 1217.76 1257.21 1216.95C1257.21 1216.14 1256.57 1215.49 1255.79 1215.49C1255.01 1215.49 1254.37 1216.14 1254.37 1216.95Z" fill="#888888"/>
<path d="M1239.62 1216.95C1239.62 1217.76 1240.26 1218.42 1241.04 1218.42C1241.82 1218.42 1242.46 1217.76 1242.46 1216.95C1242.46 1216.14 1241.82 1215.49 1241.04 1215.49C1240.26 1215.49 1239.62 1216.14 1239.62 1216.95Z" fill="#888888"/>
<path d="M1224.87 1216.95C1224.87 1217.76 1225.51 1218.42 1226.29 1218.42C1227.07 1218.42 1227.71 1217.76 1227.71 1216.95C1227.71 1216.14 1227.07 1215.49 1226.29 1215.49C1225.51 1215.49 1224.87 1216.14 1224.87 1216.95Z" fill="#888888"/>
<path d="M1210.12 1216.95C1210.12 1217.76 1210.76 1218.42 1211.54 1218.42C1212.32 1218.42 1212.95 1217.76 1212.95 1216.95C1212.95 1216.14 1212.32 1215.49 1211.54 1215.49C1210.76 1215.49 1210.12 1216.14 1210.12 1216.95Z" fill="#888888"/>
<path d="M1195.25 1216.95C1195.25 1217.76 1195.89 1218.42 1196.67 1218.42C1197.45 1218.42 1198.08 1217.76 1198.08 1216.95C1198.08 1216.14 1197.45 1215.49 1196.67 1215.49C1195.89 1215.49 1195.25 1216.14 1195.25 1216.95Z" fill="#888888"/>
<path d="M1180.5 1216.95C1180.5 1217.76 1181.14 1218.42 1181.92 1218.42C1182.7 1218.42 1183.33 1217.76 1183.33 1216.95C1183.33 1216.14 1182.7 1215.49 1181.92 1215.49C1181.14 1215.49 1180.5 1216.14 1180.5 1216.95Z" fill="#888888"/>
<path d="M1165.75 1216.95C1165.75 1217.76 1166.39 1218.42 1167.17 1218.42C1167.95 1218.42 1168.58 1217.76 1168.58 1216.95C1168.58 1216.14 1167.95 1215.49 1167.17 1215.49C1166.39 1215.49 1165.75 1216.14 1165.75 1216.95Z" fill="#888888"/>
<path d="M1151 1216.95C1151 1217.76 1151.63 1218.42 1152.42 1218.42C1153.2 1218.42 1153.83 1217.76 1153.83 1216.95C1153.83 1216.14 1153.2 1215.49 1152.42 1215.49C1151.63 1215.49 1151 1216.14 1151 1216.95Z" fill="#888888"/>
<path d="M1254.37 1232.33C1254.37 1233.13 1255.01 1233.79 1255.79 1233.79C1256.57 1233.79 1257.21 1233.13 1257.21 1232.33C1257.21 1231.52 1256.57 1230.86 1255.79 1230.86C1255.01 1230.86 1254.37 1231.52 1254.37 1232.33Z" fill="#888888"/>
<path d="M1239.62 1232.33C1239.62 1233.13 1240.26 1233.79 1241.04 1233.79C1241.82 1233.79 1242.46 1233.13 1242.46 1232.33C1242.46 1231.52 1241.82 1230.86 1241.04 1230.86C1240.26 1230.86 1239.62 1231.52 1239.62 1232.33Z" fill="#888888"/>
<path d="M1224.87 1232.33C1224.87 1233.13 1225.51 1233.79 1226.29 1233.79C1227.07 1233.79 1227.71 1233.13 1227.71 1232.33C1227.71 1231.52 1227.07 1230.86 1226.29 1230.86C1225.51 1230.86 1224.87 1231.52 1224.87 1232.33Z" fill="#888888"/>
<path d="M1210.12 1232.33C1210.12 1233.13 1210.76 1233.79 1211.54 1233.79C1212.32 1233.79 1212.95 1233.13 1212.95 1232.33C1212.95 1231.52 1212.32 1230.86 1211.54 1230.86C1210.76 1230.86 1210.12 1231.52 1210.12 1232.33Z" fill="#888888"/>
<path d="M1195.25 1232.33C1195.25 1233.13 1195.89 1233.79 1196.67 1233.79C1197.45 1233.79 1198.08 1233.13 1198.08 1232.33C1198.08 1231.52 1197.45 1230.86 1196.67 1230.86C1195.89 1230.86 1195.25 1231.52 1195.25 1232.33Z" fill="#888888"/>
<path d="M1180.5 1232.33C1180.5 1233.13 1181.14 1233.79 1181.92 1233.79C1182.7 1233.79 1183.33 1233.13 1183.33 1232.33C1183.33 1231.52 1182.7 1230.86 1181.92 1230.86C1181.14 1230.86 1180.5 1231.52 1180.5 1232.33Z" fill="#888888"/>
<path d="M1165.75 1232.33C1165.75 1233.13 1166.39 1233.79 1167.17 1233.79C1167.95 1233.79 1168.58 1233.13 1168.58 1232.33C1168.58 1231.52 1167.95 1230.86 1167.17 1230.86C1166.39 1230.86 1165.75 1231.52 1165.75 1232.33Z" fill="#888888"/>
<path d="M1151 1232.33C1151 1233.13 1151.63 1233.79 1152.42 1233.79C1153.2 1233.79 1153.83 1233.13 1153.83 1232.33C1153.83 1231.52 1153.2 1230.86 1152.42 1230.86C1151.63 1230.86 1151 1231.52 1151 1232.33Z" fill="#888888"/>
<path d="M83.8208 725.555C83.8208 727.04 84.9854 728.244 86.4219 728.244C87.8584 728.244 89.0229 727.04 89.0229 725.555C89.0229 724.07 87.8584 722.866 86.4219 722.866C84.9854 722.866 83.8208 724.07 83.8208 725.555Z" fill="#C94D35"/>
<path d="M56.7265 725.555C56.7265 727.04 57.8911 728.244 59.3276 728.244C60.7642 728.244 61.9287 727.04 61.9287 725.555C61.9287 724.07 60.7642 722.866 59.3276 722.866C57.8911 722.866 56.7265 724.07 56.7265 725.555Z" fill="#C94D35"/>
<path d="M29.6326 725.555C29.6326 727.04 30.7971 728.244 32.2337 728.244C33.6702 728.244 34.8347 727.04 34.8347 725.555C34.8347 724.07 33.6702 722.866 32.2337 722.866C30.7971 722.866 29.6326 724.07 29.6326 725.555Z" fill="#C94D35"/>
<path d="M2.53787 725.555C2.53787 727.04 3.7024 728.244 5.13893 728.244C6.57545 728.244 7.73999 727.04 7.73999 725.555C7.73999 724.07 6.57546 722.866 5.13893 722.866C3.7024 722.866 2.53787 724.07 2.53787 725.555Z" fill="#C94D35"/>
<path d="M83.8213 753.792C83.8213 755.277 84.9858 756.481 86.4224 756.481C87.8589 756.481 89.0234 755.277 89.0234 753.792C89.0234 752.307 87.8589 751.103 86.4224 751.103C84.9858 751.103 83.8213 752.307 83.8213 753.792Z" fill="#C94D35"/>
<path d="M56.7265 753.792C56.7265 755.277 57.8911 756.481 59.3276 756.481C60.7642 756.481 61.9287 755.277 61.9287 753.792C61.9287 752.307 60.7642 751.103 59.3276 751.103C57.8911 751.103 56.7265 752.307 56.7265 753.792Z" fill="#C94D35"/>
<path d="M29.6326 753.792C29.6326 755.277 30.7971 756.481 32.2337 756.481C33.6702 756.481 34.8347 755.277 34.8347 753.792C34.8347 752.307 33.6702 751.103 32.2337 751.103C30.7971 751.103 29.6326 752.307 29.6326 753.792Z" fill="#C94D35"/>
<path d="M2.53787 753.792C2.53787 755.277 3.7024 756.481 5.13893 756.481C6.57545 756.481 7.73999 755.277 7.73999 753.792C7.73999 752.307 6.57546 751.103 5.13893 751.103C3.7024 751.103 2.53787 752.307 2.53787 753.792Z" fill="#C94D35"/>
<path d="M83.8213 782.028C83.8213 783.514 84.9858 784.717 86.4224 784.717C87.8589 784.717 89.0234 783.514 89.0234 782.028C89.0234 780.543 87.8589 779.339 86.4224 779.339C84.9858 779.339 83.8213 780.543 83.8213 782.028Z" fill="#C94D35"/>
<path d="M56.7265 782.028C56.7265 783.514 57.8911 784.717 59.3276 784.717C60.7642 784.717 61.9287 783.514 61.9287 782.028C61.9287 780.543 60.7642 779.339 59.3276 779.339C57.8911 779.339 56.7265 780.543 56.7265 782.028Z" fill="#C94D35"/>
<path d="M29.6326 782.028C29.6326 783.514 30.7971 784.717 32.2337 784.717C33.6702 784.717 34.8347 783.514 34.8347 782.028C34.8347 780.543 33.6702 779.339 32.2337 779.339C30.7971 779.339 29.6326 780.543 29.6326 782.028Z" fill="#C94D35"/>
<path d="M2.53787 782.028C2.53787 783.514 3.7024 784.717 5.13893 784.717C6.57545 784.717 7.73999 783.514 7.73999 782.028C7.73999 780.543 6.57546 779.339 5.13893 779.339C3.7024 779.339 2.53787 780.543 2.53787 782.028Z" fill="#C94D35"/>
<path d="M83.8213 810.265C83.8213 811.75 84.9858 812.954 86.4224 812.954C87.8589 812.954 89.0234 811.75 89.0234 810.265C89.0234 808.78 87.8589 807.576 86.4224 807.576C84.9858 807.576 83.8213 808.78 83.8213 810.265Z" fill="#C94D35"/>
<path d="M56.7265 810.265C56.7265 811.75 57.8911 812.954 59.3276 812.954C60.7642 812.954 61.9287 811.75 61.9287 810.265C61.9287 808.78 60.7642 807.576 59.3276 807.576C57.8911 807.576 56.7265 808.78 56.7265 810.265Z" fill="#C94D35"/>
<path d="M29.6326 810.265C29.6326 811.75 30.7971 812.954 32.2337 812.954C33.6702 812.954 34.8347 811.75 34.8347 810.265C34.8347 808.78 33.6702 807.576 32.2337 807.576C30.7971 807.576 29.6326 808.78 29.6326 810.265Z" fill="#C94D35"/>
<path d="M2.53787 810.265C2.53787 811.75 3.7024 812.954 5.13893 812.954C6.57545 812.954 7.73999 811.75 7.73999 810.265C7.73999 808.78 6.57546 807.576 5.13893 807.576C3.7024 807.576 2.53787 808.78 2.53787 810.265Z" fill="#C94D35"/>
<path d="M83.8213 838.725C83.8213 840.211 84.9858 841.415 86.4224 841.415C87.8589 841.415 89.0234 840.211 89.0234 838.725C89.0234 837.24 87.8589 836.036 86.4224 836.036C84.9858 836.036 83.8213 837.24 83.8213 838.725Z" fill="#C94D35"/>
<path d="M56.7265 838.725C56.7265 840.211 57.8911 841.415 59.3276 841.415C60.7642 841.415 61.9287 840.211 61.9287 838.725C61.9287 837.24 60.7642 836.036 59.3276 836.036C57.8911 836.036 56.7265 837.24 56.7265 838.725Z" fill="#C94D35"/>
<path d="M29.6326 838.725C29.6326 840.211 30.7971 841.415 32.2336 841.415C33.6702 841.415 34.8347 840.211 34.8347 838.725C34.8347 837.24 33.6702 836.036 32.2336 836.036C30.7971 836.036 29.6326 837.24 29.6326 838.725Z" fill="#C94D35"/>
<path d="M2.53784 838.725C2.53784 840.211 3.70238 841.415 5.13891 841.415C6.57545 841.415 7.73999 840.211 7.73999 838.725C7.73999 837.24 6.57545 836.036 5.13891 836.036C3.70238 836.036 2.53784 837.24 2.53784 838.725Z" fill="#C94D35"/>
<path d="M83.8213 866.962C83.8213 868.447 84.9858 869.651 86.4224 869.651C87.8589 869.651 89.0234 868.447 89.0234 866.962C89.0234 865.477 87.8589 864.273 86.4224 864.273C84.9858 864.273 83.8213 865.477 83.8213 866.962Z" fill="#C94D35"/>
<path d="M56.7266 866.962C56.7266 868.447 57.8911 869.651 59.3276 869.651C60.7642 869.651 61.9287 868.447 61.9287 866.962C61.9287 865.477 60.7642 864.273 59.3276 864.273C57.8911 864.273 56.7266 865.477 56.7266 866.962Z" fill="#C94D35"/>
<path d="M29.6326 866.962C29.6326 868.447 30.7971 869.651 32.2337 869.651C33.6702 869.651 34.8347 868.447 34.8347 866.962C34.8347 865.477 33.6702 864.273 32.2337 864.273C30.7971 864.273 29.6326 865.477 29.6326 866.962Z" fill="#C94D35"/>
<path d="M2.53787 866.962C2.53787 868.447 3.7024 869.651 5.13893 869.651C6.57545 869.651 7.73999 868.447 7.73999 866.962C7.73999 865.477 6.57546 864.273 5.13893 864.273C3.7024 864.273 2.53787 865.477 2.53787 866.962Z" fill="#C94D35"/>
<path d="M83.8213 895.198C83.8213 896.684 84.9858 897.888 86.4224 897.888C87.8589 897.888 89.0234 896.684 89.0234 895.198C89.0234 893.713 87.8589 892.509 86.4224 892.509C84.9858 892.509 83.8213 893.713 83.8213 895.198Z" fill="#C94D35"/>
<path d="M56.7266 895.198C56.7266 896.684 57.8911 897.888 59.3276 897.888C60.7642 897.888 61.9287 896.684 61.9287 895.198C61.9287 893.713 60.7642 892.509 59.3276 892.509C57.8911 892.509 56.7266 893.713 56.7266 895.198Z" fill="#C94D35"/>
<path d="M29.6326 895.198C29.6326 896.684 30.7971 897.888 32.2337 897.888C33.6702 897.888 34.8347 896.684 34.8347 895.198C34.8347 893.713 33.6702 892.509 32.2337 892.509C30.7971 892.509 29.6326 893.713 29.6326 895.198Z" fill="#C94D35"/>
<path d="M2.53787 895.198C2.53787 896.684 3.7024 897.888 5.13893 897.888C6.57545 897.888 7.73999 896.684 7.73999 895.198C7.73999 893.713 6.57546 892.509 5.13893 892.509C3.7024 892.509 2.53787 893.713 2.53787 895.198Z" fill="#C94D35"/>
<path d="M83.8213 923.435C83.8213 924.92 84.9858 926.124 86.4224 926.124C87.8589 926.124 89.0234 924.92 89.0234 923.435C89.0234 921.95 87.8589 920.746 86.4224 920.746C84.9858 920.746 83.8213 921.95 83.8213 923.435Z" fill="#C94D35"/>
<path d="M56.7265 923.435C56.7265 924.92 57.8911 926.124 59.3276 926.124C60.7642 926.124 61.9287 924.92 61.9287 923.435C61.9287 921.95 60.7642 920.746 59.3276 920.746C57.8911 920.746 56.7265 921.95 56.7265 923.435Z" fill="#C94D35"/>
<path d="M29.6326 923.435C29.6326 924.92 30.7971 926.124 32.2337 926.124C33.6702 926.124 34.8347 924.92 34.8347 923.435C34.8347 921.95 33.6702 920.746 32.2337 920.746C30.7971 920.746 29.6326 921.95 29.6326 923.435Z" fill="#C94D35"/>
<path d="M2.53787 923.435C2.53787 924.92 3.7024 926.124 5.13893 926.124C6.57545 926.124 7.73999 924.92 7.73999 923.435C7.73999 921.95 6.57546 920.746 5.13893 920.746C3.7024 920.746 2.53787 921.95 2.53787 923.435Z" fill="#C94D35"/>
<path d="M103.375 41.2559C103.375 42.0645 104.009 42.72 104.791 42.72C105.573 42.72 106.207 42.0645 106.207 41.2559C106.207 40.4474 105.573 39.7919 104.791 39.7919C104.009 39.7919 103.375 40.4474 103.375 41.2559Z" fill="#888888"/>
<path d="M88.6235 41.2558C88.6235 42.0644 89.2576 42.7199 90.0397 42.7199C90.8218 42.7199 91.4558 42.0644 91.4558 41.2558C91.4558 40.4472 90.8218 39.7917 90.0397 39.7917C89.2576 39.7917 88.6235 40.4472 88.6235 41.2558Z" fill="#888888"/>
<path d="M73.8729 41.2558C73.8729 42.0644 74.5069 42.7199 75.289 42.7199C76.0711 42.7199 76.7051 42.0644 76.7051 41.2558C76.7051 40.4472 76.0711 39.7917 75.289 39.7917C74.5069 39.7917 73.8729 40.4472 73.8729 41.2558Z" fill="#888888"/>
<path d="M59.1214 41.2558C59.1214 42.0644 59.7554 42.7199 60.5375 42.7199C61.3196 42.7199 61.9536 42.0644 61.9536 41.2558C61.9536 40.4472 61.3196 39.7917 60.5375 39.7917C59.7554 39.7917 59.1214 40.4472 59.1214 41.2558Z" fill="#888888"/>
<path d="M44.2525 41.2558C44.2525 42.0644 44.8865 42.7199 45.6686 42.7199C46.4507 42.7199 47.0847 42.0644 47.0847 41.2558C47.0847 40.4472 46.4507 39.7917 45.6686 39.7917C44.8865 39.7917 44.2525 40.4472 44.2525 41.2558Z" fill="#888888"/>
<path d="M29.5018 41.2558C29.5018 42.0644 30.1358 42.7199 30.9179 42.7199C31.7 42.7199 32.334 42.0644 32.334 41.2558C32.334 40.4472 31.7 39.7917 30.9179 39.7917C30.1358 39.7917 29.5018 40.4472 29.5018 41.2558Z" fill="#888888"/>
<path d="M14.7508 41.2558C14.7508 42.0644 15.3848 42.7199 16.1669 42.7199C16.949 42.7199 17.583 42.0644 17.583 41.2558C17.583 40.4472 16.949 39.7917 16.1669 39.7917C15.3848 39.7917 14.7508 40.4472 14.7508 41.2558Z" fill="#888888"/>
<path d="M9.29213e-05 41.2558C9.28872e-05 42.0644 0.634098 42.7199 1.41618 42.7199C2.19827 42.7199 2.83228 42.0644 2.83228 41.2558C2.83228 40.4472 2.19827 39.7917 1.41618 39.7917C0.634099 39.7917 9.29555e-05 40.4472 9.29213e-05 41.2558Z" fill="#888888"/>
<path d="M103.375 56.6284C103.375 57.4369 104.009 58.0924 104.791 58.0924C105.573 58.0924 106.207 57.4369 106.207 56.6284C106.207 55.8198 105.573 55.1643 104.791 55.1643C104.009 55.1643 103.375 55.8198 103.375 56.6284Z" fill="#888888"/>
<path d="M88.6235 56.6284C88.6235 57.4369 89.2576 58.0924 90.0397 58.0924C90.8218 58.0924 91.4558 57.4369 91.4558 56.6284C91.4558 55.8198 90.8218 55.1643 90.0397 55.1643C89.2576 55.1643 88.6235 55.8198 88.6235 56.6284Z" fill="#888888"/>
<path d="M73.8729 56.6284C73.8729 57.4369 74.5069 58.0924 75.289 58.0924C76.0711 58.0924 76.7051 57.4369 76.7051 56.6284C76.7051 55.8198 76.0711 55.1643 75.289 55.1643C74.5069 55.1643 73.8729 55.8198 73.8729 56.6284Z" fill="#888888"/>
<path d="M59.1214 56.6284C59.1214 57.4369 59.7554 58.0924 60.5375 58.0924C61.3196 58.0924 61.9536 57.4369 61.9536 56.6284C61.9536 55.8198 61.3196 55.1643 60.5375 55.1643C59.7554 55.1643 59.1214 55.8198 59.1214 56.6284Z" fill="#888888"/>
<path d="M44.2525 56.6284C44.2525 57.4369 44.8865 58.0924 45.6686 58.0924C46.4507 58.0924 47.0847 57.4369 47.0847 56.6284C47.0847 55.8198 46.4507 55.1643 45.6686 55.1643C44.8865 55.1643 44.2525 55.8198 44.2525 56.6284Z" fill="#888888"/>
<path d="M29.5018 56.6284C29.5018 57.4369 30.1358 58.0924 30.9179 58.0924C31.7 58.0924 32.334 57.4369 32.334 56.6284C32.334 55.8198 31.7 55.1643 30.9179 55.1643C30.1358 55.1643 29.5018 55.8198 29.5018 56.6284Z" fill="#888888"/>
<path d="M14.7508 56.6284C14.7508 57.4369 15.3848 58.0924 16.1669 58.0924C16.949 58.0924 17.583 57.4369 17.583 56.6284C17.583 55.8198 16.949 55.1643 16.1669 55.1643C15.3848 55.1643 14.7508 55.8198 14.7508 56.6284Z" fill="#888888"/>
<path d="M9.29232e-05 56.6284C9.28901e-05 57.4369 0.634098 58.0924 1.41618 58.0924C2.19827 58.0924 2.83228 57.4369 2.83228 56.6284C2.83228 55.8198 2.19827 55.1643 1.41618 55.1643C0.634099 55.1643 9.29564e-05 55.8198 9.29232e-05 56.6284Z" fill="#888888"/>
<path d="M103.375 72.0012C103.375 72.8097 104.009 73.4652 104.791 73.4652C105.573 73.4652 106.207 72.8097 106.207 72.0012C106.207 71.1926 105.573 70.5371 104.791 70.5371C104.009 70.5371 103.375 71.1926 103.375 72.0012Z" fill="#888888"/>
<path d="M88.6235 72.0012C88.6235 72.8097 89.2576 73.4652 90.0397 73.4652C90.8218 73.4652 91.4558 72.8097 91.4558 72.0012C91.4558 71.1926 90.8218 70.5371 90.0397 70.5371C89.2576 70.5371 88.6235 71.1926 88.6235 72.0012Z" fill="#888888"/>
<path d="M73.8729 72.0012C73.8729 72.8097 74.5069 73.4652 75.289 73.4652C76.0711 73.4652 76.7051 72.8097 76.7051 72.0012C76.7051 71.1926 76.0711 70.5371 75.289 70.5371C74.5069 70.5371 73.8729 71.1926 73.8729 72.0012Z" fill="#888888"/>
<path d="M59.1214 72.0012C59.1214 72.8097 59.7554 73.4652 60.5375 73.4652C61.3196 73.4652 61.9536 72.8097 61.9536 72.0012C61.9536 71.1926 61.3196 70.5371 60.5375 70.5371C59.7554 70.5371 59.1214 71.1926 59.1214 72.0012Z" fill="#888888"/>
<path d="M44.2525 72.0012C44.2525 72.8097 44.8865 73.4652 45.6686 73.4652C46.4507 73.4652 47.0847 72.8097 47.0847 72.0012C47.0847 71.1926 46.4507 70.5371 45.6686 70.5371C44.8865 70.5371 44.2525 71.1926 44.2525 72.0012Z" fill="#888888"/>
<path d="M29.5018 72.0012C29.5018 72.8097 30.1358 73.4652 30.9179 73.4652C31.7 73.4652 32.334 72.8097 32.334 72.0012C32.334 71.1926 31.7 70.5371 30.9179 70.5371C30.1358 70.5371 29.5018 71.1926 29.5018 72.0012Z" fill="#888888"/>
<path d="M14.7508 72.0012C14.7508 72.8097 15.3848 73.4652 16.1669 73.4652C16.949 73.4652 17.583 72.8097 17.583 72.0012C17.583 71.1926 16.949 70.5371 16.1669 70.5371C15.3848 70.5371 14.7508 71.1926 14.7508 72.0012Z" fill="#888888"/>
<path d="M9.29232e-05 72.0012C9.28901e-05 72.8097 0.634098 73.4652 1.41618 73.4652C2.19827 73.4652 2.83228 72.8097 2.83228 72.0012C2.83228 71.1926 2.19827 70.5371 1.41618 70.5371C0.634099 70.5371 9.29564e-05 71.1926 9.29232e-05 72.0012Z" fill="#888888"/>
<path d="M103.375 87.374C103.375 88.1825 104.009 88.838 104.791 88.838C105.573 88.838 106.207 88.1825 106.207 87.374C106.207 86.5654 105.573 85.9099 104.791 85.9099C104.009 85.9099 103.375 86.5654 103.375 87.374Z" fill="#888888"/>
<path d="M88.6235 87.374C88.6235 88.1825 89.2576 88.838 90.0397 88.838C90.8218 88.838 91.4558 88.1825 91.4558 87.374C91.4558 86.5654 90.8218 85.9099 90.0397 85.9099C89.2576 85.9099 88.6235 86.5654 88.6235 87.374Z" fill="#888888"/>
<path d="M73.8729 87.374C73.8729 88.1825 74.5069 88.838 75.289 88.838C76.0711 88.838 76.7051 88.1825 76.7051 87.374C76.7051 86.5654 76.0711 85.9099 75.289 85.9099C74.5069 85.9099 73.8729 86.5654 73.8729 87.374Z" fill="#888888"/>
<path d="M59.1214 87.374C59.1214 88.1825 59.7554 88.838 60.5375 88.838C61.3196 88.838 61.9536 88.1825 61.9536 87.374C61.9536 86.5654 61.3196 85.9099 60.5375 85.9099C59.7554 85.9099 59.1214 86.5654 59.1214 87.374Z" fill="#888888"/>
<path d="M44.2525 87.374C44.2525 88.1825 44.8865 88.838 45.6686 88.838C46.4507 88.838 47.0847 88.1825 47.0847 87.374C47.0847 86.5654 46.4507 85.9099 45.6686 85.9099C44.8865 85.9099 44.2525 86.5654 44.2525 87.374Z" fill="#888888"/>
<path d="M29.5018 87.374C29.5018 88.1825 30.1358 88.838 30.9179 88.838C31.7 88.838 32.334 88.1825 32.334 87.374C32.334 86.5654 31.7 85.9099 30.9179 85.9099C30.1358 85.9099 29.5018 86.5654 29.5018 87.374Z" fill="#888888"/>
<path d="M14.7508 87.374C14.7508 88.1825 15.3848 88.838 16.1669 88.838C16.949 88.838 17.583 88.1825 17.583 87.374C17.583 86.5654 16.949 85.9099 16.1669 85.9099C15.3848 85.9099 14.7508 86.5654 14.7508 87.374Z" fill="#888888"/>
<path d="M9.29232e-05 87.374C9.28901e-05 88.1825 0.634098 88.838 1.41618 88.838C2.19827 88.838 2.83228 88.1825 2.83228 87.374C2.83228 86.5654 2.19827 85.9099 1.41618 85.9099C0.634099 85.9099 9.29564e-05 86.5654 9.29232e-05 87.374Z" fill="#888888"/>
<path d="M103.375 102.869C103.375 103.677 104.009 104.333 104.791 104.333C105.573 104.333 106.207 103.677 106.207 102.869C106.207 102.06 105.573 101.405 104.791 101.405C104.009 101.405 103.375 102.06 103.375 102.869Z" fill="#888888"/>
<path d="M88.6235 102.869C88.6235 103.677 89.2576 104.333 90.0397 104.333C90.8218 104.333 91.4558 103.677 91.4558 102.869C91.4558 102.06 90.8218 101.405 90.0397 101.405C89.2576 101.405 88.6235 102.06 88.6235 102.869Z" fill="#888888"/>
<path d="M73.8729 102.869C73.8729 103.677 74.5069 104.333 75.289 104.333C76.0711 104.333 76.7051 103.677 76.7051 102.869C76.7051 102.06 76.0711 101.405 75.289 101.405C74.5069 101.405 73.8729 102.06 73.8729 102.869Z" fill="#888888"/>
<path d="M59.1214 102.869C59.1214 103.677 59.7554 104.333 60.5375 104.333C61.3196 104.333 61.9536 103.677 61.9536 102.869C61.9536 102.06 61.3196 101.405 60.5375 101.405C59.7554 101.405 59.1214 102.06 59.1214 102.869Z" fill="#888888"/>
<path d="M44.2525 102.869C44.2525 103.677 44.8865 104.333 45.6686 104.333C46.4507 104.333 47.0847 103.677 47.0847 102.869C47.0847 102.06 46.4507 101.405 45.6686 101.405C44.8865 101.405 44.2525 102.06 44.2525 102.869Z" fill="#888888"/>
<path d="M29.5018 102.869C29.5018 103.677 30.1358 104.333 30.9179 104.333C31.7 104.333 32.334 103.677 32.334 102.869C32.334 102.06 31.7 101.405 30.9179 101.405C30.1358 101.405 29.5018 102.06 29.5018 102.869Z" fill="#888888"/>
<path d="M14.7508 102.869C14.7508 103.677 15.3848 104.333 16.1669 104.333C16.949 104.333 17.583 103.677 17.583 102.869C17.583 102.06 16.949 101.405 16.1669 101.405C15.3848 101.405 14.7508 102.06 14.7508 102.869Z" fill="#888888"/>
<path d="M7.71876e-05 102.869C7.71544e-05 103.677 0.634086 104.333 1.41618 104.333C2.19827 104.333 2.83228 103.677 2.83228 102.869C2.83228 102.06 2.19827 101.405 1.41618 101.405C0.634086 101.405 7.72207e-05 102.06 7.71876e-05 102.869Z" fill="#888888"/>
<path d="M103.375 118.242C103.375 119.05 104.009 119.706 104.791 119.706C105.573 119.706 106.207 119.05 106.207 118.242C106.207 117.433 105.573 116.777 104.791 116.777C104.009 116.777 103.375 117.433 103.375 118.242Z" fill="#888888"/>
<path d="M88.6235 118.242C88.6235 119.05 89.2576 119.706 90.0397 119.706C90.8218 119.706 91.4558 119.05 91.4558 118.242C91.4558 117.433 90.8218 116.777 90.0397 116.777C89.2576 116.777 88.6235 117.433 88.6235 118.242Z" fill="#888888"/>
<path d="M73.8729 118.242C73.8729 119.05 74.5069 119.706 75.289 119.706C76.0711 119.706 76.7051 119.05 76.7051 118.242C76.7051 117.433 76.0711 116.777 75.289 116.777C74.5069 116.777 73.8729 117.433 73.8729 118.242Z" fill="#888888"/>
<path d="M59.1214 118.242C59.1214 119.05 59.7554 119.706 60.5375 119.706C61.3196 119.706 61.9536 119.05 61.9536 118.242C61.9536 117.433 61.3196 116.777 60.5375 116.777C59.7554 116.777 59.1214 117.433 59.1214 118.242Z" fill="#888888"/>
<path d="M44.2525 118.242C44.2525 119.05 44.8865 119.706 45.6686 119.706C46.4507 119.706 47.0847 119.05 47.0847 118.242C47.0847 117.433 46.4507 116.777 45.6686 116.777C44.8865 116.777 44.2525 117.433 44.2525 118.242Z" fill="#888888"/>
<path d="M29.5018 118.242C29.5018 119.05 30.1358 119.706 30.9179 119.706C31.7 119.706 32.334 119.05 32.334 118.242C32.334 117.433 31.7 116.777 30.9179 116.777C30.1358 116.777 29.5018 117.433 29.5018 118.242Z" fill="#888888"/>
<path d="M14.7508 118.242C14.7508 119.05 15.3848 119.706 16.1669 119.706C16.949 119.706 17.583 119.05 17.583 118.242C17.583 117.433 16.949 116.777 16.1669 116.777C15.3848 116.777 14.7508 117.433 14.7508 118.242Z" fill="#888888"/>
<path d="M9.29232e-05 118.242C9.28901e-05 119.05 0.634098 119.706 1.41618 119.706C2.19827 119.706 2.83228 119.05 2.83228 118.242C2.83228 117.433 2.19827 116.777 1.41618 116.777C0.634099 116.777 9.29564e-05 117.433 9.29232e-05 118.242Z" fill="#888888"/>
<path d="M103.375 133.614C103.375 134.423 104.009 135.078 104.791 135.078C105.573 135.078 106.207 134.423 106.207 133.614C106.207 132.806 105.573 132.15 104.791 132.15C104.009 132.15 103.375 132.806 103.375 133.614Z" fill="#888888"/>
<path d="M88.6235 133.614C88.6235 134.423 89.2576 135.078 90.0397 135.078C90.8218 135.078 91.4558 134.423 91.4558 133.614C91.4558 132.806 90.8218 132.15 90.0397 132.15C89.2576 132.15 88.6235 132.806 88.6235 133.614Z" fill="#888888"/>
<path d="M73.8729 133.614C73.8729 134.423 74.5069 135.078 75.289 135.078C76.0711 135.078 76.7051 134.423 76.7051 133.614C76.7051 132.806 76.0711 132.15 75.289 132.15C74.5069 132.15 73.8729 132.806 73.8729 133.614Z" fill="#888888"/>
<path d="M59.1214 133.614C59.1214 134.423 59.7554 135.078 60.5375 135.078C61.3196 135.078 61.9536 134.423 61.9536 133.614C61.9536 132.806 61.3196 132.15 60.5375 132.15C59.7554 132.15 59.1214 132.806 59.1214 133.614Z" fill="#888888"/>
<path d="M44.2525 133.614C44.2525 134.423 44.8865 135.078 45.6686 135.078C46.4507 135.078 47.0847 134.423 47.0847 133.614C47.0847 132.806 46.4507 132.15 45.6686 132.15C44.8865 132.15 44.2525 132.806 44.2525 133.614Z" fill="#888888"/>
<path d="M29.5018 133.614C29.5018 134.423 30.1358 135.078 30.9179 135.078C31.7 135.078 32.334 134.423 32.334 133.614C32.334 132.806 31.7 132.15 30.9179 132.15C30.1358 132.15 29.5018 132.806 29.5018 133.614Z" fill="#888888"/>
<path d="M14.7508 133.614C14.7508 134.423 15.3848 135.078 16.1669 135.078C16.949 135.078 17.583 134.423 17.583 133.614C17.583 132.806 16.949 132.15 16.1669 132.15C15.3848 132.15 14.7508 132.806 14.7508 133.614Z" fill="#888888"/>
<path d="M9.29232e-05 133.614C9.28901e-05 134.423 0.634098 135.078 1.41618 135.078C2.19827 135.078 2.83228 134.423 2.83228 133.614C2.83228 132.806 2.19827 132.15 1.41618 132.15C0.634099 132.15 9.29564e-05 132.806 9.29232e-05 133.614Z" fill="#888888"/>
<path d="M103.375 148.987C103.375 149.796 104.009 150.451 104.791 150.451C105.573 150.451 106.207 149.796 106.207 148.987C106.207 148.178 105.573 147.523 104.791 147.523C104.009 147.523 103.375 148.178 103.375 148.987Z" fill="#888888"/>
<path d="M88.6235 148.987C88.6235 149.796 89.2576 150.451 90.0397 150.451C90.8218 150.451 91.4558 149.796 91.4558 148.987C91.4558 148.178 90.8218 147.523 90.0397 147.523C89.2576 147.523 88.6235 148.178 88.6235 148.987Z" fill="#888888"/>
<path d="M73.8729 148.987C73.8729 149.796 74.5069 150.451 75.289 150.451C76.0711 150.451 76.7051 149.796 76.7051 148.987C76.7051 148.178 76.0711 147.523 75.289 147.523C74.5069 147.523 73.8729 148.178 73.8729 148.987Z" fill="#888888"/>
<path d="M59.1214 148.987C59.1214 149.796 59.7554 150.451 60.5375 150.451C61.3196 150.451 61.9536 149.796 61.9536 148.987C61.9536 148.178 61.3196 147.523 60.5375 147.523C59.7554 147.523 59.1214 148.178 59.1214 148.987Z" fill="#888888"/>
<path d="M44.2525 148.987C44.2525 149.796 44.8865 150.451 45.6686 150.451C46.4507 150.451 47.0847 149.796 47.0847 148.987C47.0847 148.178 46.4507 147.523 45.6686 147.523C44.8865 147.523 44.2525 148.178 44.2525 148.987Z" fill="#888888"/>
<path d="M29.5018 148.987C29.5018 149.796 30.1358 150.451 30.9179 150.451C31.7 150.451 32.334 149.796 32.334 148.987C32.334 148.178 31.7 147.523 30.9179 147.523C30.1358 147.523 29.5018 148.178 29.5018 148.987Z" fill="#888888"/>
<path d="M14.7508 148.987C14.7508 149.796 15.3848 150.451 16.1669 150.451C16.949 150.451 17.583 149.796 17.583 148.987C17.583 148.178 16.949 147.523 16.1669 147.523C15.3848 147.523 14.7508 148.178 14.7508 148.987Z" fill="#888888"/>
<path d="M9.29232e-05 148.987C9.28901e-05 149.796 0.634098 150.451 1.41618 150.451C2.19827 150.451 2.83228 149.796 2.83228 148.987C2.83228 148.178 2.19827 147.523 1.41618 147.523C0.634099 147.523 9.29564e-05 148.178 9.29232e-05 148.987Z" fill="#888888"/>
</svg>
