<svg width="1249" height="353" viewBox="0 0 1249 353" fill="none" xmlns="http://www.w3.org/2000/svg">
<path d="M1243.54 264.689C1243.54 266.174 1244.71 267.378 1246.14 267.378C1247.58 267.378 1248.75 266.174 1248.75 264.689C1248.75 263.204 1247.58 262 1246.14 262C1244.71 262 1243.54 263.204 1243.54 264.689Z" fill="#C94D35"/>
<path d="M1216.45 264.689C1216.45 266.174 1217.61 267.378 1219.05 267.378C1220.49 267.378 1221.65 266.174 1221.65 264.689C1221.65 263.204 1220.49 262 1219.05 262C1217.61 262 1216.45 263.204 1216.45 264.689Z" fill="#C94D35"/>
<path d="M1189.36 264.689C1189.36 266.174 1190.52 267.378 1191.96 267.378C1193.39 267.378 1194.56 266.174 1194.56 264.689C1194.56 263.204 1193.39 262 1191.96 262C1190.52 262 1189.36 263.204 1189.36 264.689Z" fill="#C94D35"/>
<path d="M1162.26 264.689C1162.26 266.174 1163.43 267.378 1164.86 267.378C1166.3 267.378 1167.46 266.174 1167.46 264.689C1167.46 263.204 1166.3 262 1164.86 262C1163.43 262 1162.26 263.204 1162.26 264.689Z" fill="#C94D35"/>
<path d="M1243.54 292.926C1243.54 294.411 1244.71 295.615 1246.15 295.615C1247.58 295.615 1248.75 294.411 1248.75 292.926C1248.75 291.44 1247.58 290.236 1246.15 290.236C1244.71 290.236 1243.54 291.44 1243.54 292.926Z" fill="#C94D35"/>
<path d="M1216.45 292.926C1216.45 294.411 1217.61 295.615 1219.05 295.615C1220.49 295.615 1221.65 294.411 1221.65 292.926C1221.65 291.44 1220.49 290.236 1219.05 290.236C1217.61 290.236 1216.45 291.44 1216.45 292.926Z" fill="#C94D35"/>
<path d="M1189.36 292.926C1189.36 294.411 1190.52 295.615 1191.96 295.615C1193.39 295.615 1194.56 294.411 1194.56 292.926C1194.56 291.44 1193.39 290.236 1191.96 290.236C1190.52 290.236 1189.36 291.44 1189.36 292.926Z" fill="#C94D35"/>
<path d="M1162.26 292.926C1162.26 294.411 1163.43 295.615 1164.86 295.615C1166.3 295.615 1167.46 294.411 1167.46 292.926C1167.46 291.44 1166.3 290.236 1164.86 290.236C1163.43 290.236 1162.26 291.44 1162.26 292.926Z" fill="#C94D35"/>
<path d="M1243.54 321.162C1243.54 322.647 1244.71 323.851 1246.15 323.851C1247.58 323.851 1248.75 322.647 1248.75 321.162C1248.75 319.677 1247.58 318.473 1246.15 318.473C1244.71 318.473 1243.54 319.677 1243.54 321.162Z" fill="#C94D35"/>
<path d="M1216.45 321.162C1216.45 322.647 1217.61 323.851 1219.05 323.851C1220.49 323.851 1221.65 322.647 1221.65 321.162C1221.65 319.677 1220.49 318.473 1219.05 318.473C1217.61 318.473 1216.45 319.677 1216.45 321.162Z" fill="#C94D35"/>
<path d="M1189.36 321.162C1189.36 322.647 1190.52 323.851 1191.96 323.851C1193.39 323.851 1194.56 322.647 1194.56 321.162C1194.56 319.677 1193.39 318.473 1191.96 318.473C1190.52 318.473 1189.36 319.677 1189.36 321.162Z" fill="#C94D35"/>
<path d="M1162.26 321.162C1162.26 322.647 1163.43 323.851 1164.86 323.851C1166.3 323.851 1167.46 322.647 1167.46 321.162C1167.46 319.677 1166.3 318.473 1164.86 318.473C1163.43 318.473 1162.26 319.677 1162.26 321.162Z" fill="#C94D35"/>
<path d="M1243.54 349.399C1243.54 350.884 1244.71 352.088 1246.15 352.088C1247.58 352.088 1248.75 350.884 1248.75 349.399C1248.75 347.914 1247.58 346.71 1246.15 346.71C1244.71 346.71 1243.54 347.914 1243.54 349.399Z" fill="#C94D35"/>
<path d="M1216.45 349.399C1216.45 350.884 1217.61 352.088 1219.05 352.088C1220.49 352.088 1221.65 350.884 1221.65 349.399C1221.65 347.914 1220.49 346.71 1219.05 346.71C1217.61 346.71 1216.45 347.914 1216.45 349.399Z" fill="#C94D35"/>
<path d="M1189.36 349.399C1189.36 350.884 1190.52 352.088 1191.96 352.088C1193.39 352.088 1194.56 350.884 1194.56 349.399C1194.56 347.914 1193.39 346.71 1191.96 346.71C1190.52 346.71 1189.36 347.914 1189.36 349.399Z" fill="#C94D35"/>
<path d="M1162.26 349.399C1162.26 350.884 1163.43 352.088 1164.86 352.088C1166.3 352.088 1167.46 350.884 1167.46 349.399C1167.46 347.914 1166.3 346.71 1164.86 346.71C1163.43 346.71 1162.26 347.914 1162.26 349.399Z" fill="#C94D35"/>
<path d="M81.3574 2.68916C81.3574 4.17435 82.522 5.37833 83.9585 5.37833C85.395 5.37833 86.5596 4.17435 86.5596 2.68916C86.5596 1.20398 85.395 -5.26238e-08 83.9585 -1.17539e-07C82.522 -1.82453e-07 81.3574 1.20398 81.3574 2.68916Z" fill="#C94D35"/>
<path d="M54.2629 2.68916C54.2629 4.17435 55.4275 5.37833 56.864 5.37833C58.3005 5.37833 59.4651 4.17435 59.4651 2.68916C59.4651 1.20398 58.3005 -5.26241e-08 56.864 -1.17539e-07C55.4275 -1.82454e-07 54.2629 1.20398 54.2629 2.68916Z" fill="#C94D35"/>
<path d="M27.169 2.68916C27.169 4.17435 28.3335 5.37833 29.77 5.37833C31.2066 5.37833 32.3711 4.17435 32.3711 2.68916C32.3711 1.20398 31.2066 -5.26237e-08 29.77 -1.17538e-07C28.3335 -1.82453e-07 27.169 1.20398 27.169 2.68916Z" fill="#C94D35"/>
<path d="M0.0742434 2.68916C0.0742434 4.17435 1.23878 5.37833 2.67531 5.37833C4.11183 5.37833 5.27637 4.17435 5.27637 2.68916C5.27637 1.20398 4.11183 -5.26237e-08 2.67531 -1.17538e-07C1.23878 -1.82453e-07 0.0742435 1.20398 0.0742434 2.68916Z" fill="#C94D35"/>
<path d="M81.3577 30.9256C81.3577 32.4108 82.5222 33.6148 83.9587 33.6148C85.3953 33.6148 86.5598 32.4108 86.5598 30.9256C86.5598 29.4404 85.3953 28.2365 83.9587 28.2365C82.5222 28.2365 81.3577 29.4404 81.3577 30.9256Z" fill="#C94D35"/>
<path d="M54.2629 30.9256C54.2629 32.4108 55.4275 33.6148 56.864 33.6148C58.3005 33.6148 59.4651 32.4108 59.4651 30.9256C59.4651 29.4404 58.3005 28.2365 56.864 28.2365C55.4275 28.2365 54.2629 29.4404 54.2629 30.9256Z" fill="#C94D35"/>
<path d="M27.169 30.9256C27.169 32.4108 28.3335 33.6148 29.77 33.6148C31.2066 33.6148 32.3711 32.4108 32.3711 30.9256C32.3711 29.4404 31.2066 28.2365 29.77 28.2365C28.3335 28.2365 27.169 29.4404 27.169 30.9256Z" fill="#C94D35"/>
<path d="M0.0742434 30.9256C0.0742434 32.4108 1.23878 33.6148 2.67531 33.6148C4.11183 33.6148 5.27637 32.4108 5.27637 30.9256C5.27637 29.4404 4.11183 28.2365 2.67531 28.2365C1.23878 28.2365 0.0742435 29.4404 0.0742434 30.9256Z" fill="#C94D35"/>
<path d="M81.3577 59.1622C81.3577 60.6474 82.5222 61.8513 83.9587 61.8513C85.3953 61.8513 86.5598 60.6474 86.5598 59.1622C86.5598 57.677 85.3953 56.473 83.9587 56.473C82.5222 56.473 81.3577 57.677 81.3577 59.1622Z" fill="#C94D35"/>
<path d="M54.2629 59.1622C54.2629 60.6474 55.4275 61.8513 56.864 61.8513C58.3005 61.8513 59.4651 60.6474 59.4651 59.1622C59.4651 57.677 58.3005 56.473 56.864 56.473C55.4275 56.473 54.2629 57.677 54.2629 59.1622Z" fill="#C94D35"/>
<path d="M27.169 59.1622C27.169 60.6474 28.3335 61.8513 29.77 61.8513C31.2066 61.8513 32.3711 60.6474 32.3711 59.1622C32.3711 57.677 31.2066 56.473 29.77 56.473C28.3335 56.473 27.169 57.677 27.169 59.1622Z" fill="#C94D35"/>
<path d="M0.0742434 59.1622C0.0742434 60.6474 1.23878 61.8513 2.67531 61.8513C4.11183 61.8513 5.27637 60.6474 5.27637 59.1622C5.27637 57.677 4.11183 56.473 2.67531 56.473C1.23878 56.473 0.0742435 57.677 0.0742434 59.1622Z" fill="#C94D35"/>
<path d="M81.3577 87.3989C81.3577 88.8841 82.5222 90.088 83.9587 90.088C85.3953 90.088 86.5598 88.8841 86.5598 87.3989C86.5598 85.9137 85.3953 84.7097 83.9587 84.7097C82.5222 84.7097 81.3577 85.9137 81.3577 87.3989Z" fill="#C94D35"/>
<path d="M54.2629 87.3989C54.2629 88.8841 55.4275 90.088 56.864 90.088C58.3005 90.088 59.4651 88.8841 59.4651 87.3989C59.4651 85.9137 58.3005 84.7097 56.864 84.7097C55.4275 84.7097 54.2629 85.9137 54.2629 87.3989Z" fill="#C94D35"/>
<path d="M27.169 87.3989C27.169 88.8841 28.3335 90.088 29.77 90.088C31.2066 90.088 32.3711 88.8841 32.3711 87.3989C32.3711 85.9137 31.2066 84.7097 29.77 84.7097C28.3335 84.7097 27.169 85.9137 27.169 87.3989Z" fill="#C94D35"/>
<path d="M0.0742434 87.3989C0.0742434 88.8841 1.23878 90.088 2.67531 90.088C4.11183 90.088 5.27637 88.8841 5.27637 87.3989C5.27637 85.9137 4.11183 84.7097 2.67531 84.7097C1.23878 84.7097 0.0742435 85.9137 0.0742434 87.3989Z" fill="#C94D35"/>
<path d="M81.3577 115.859C81.3577 117.344 82.5222 118.548 83.9587 118.548C85.3953 118.548 86.5598 117.344 86.5598 115.859C86.5598 114.374 85.3953 113.17 83.9587 113.17C82.5222 113.17 81.3577 114.374 81.3577 115.859Z" fill="#C94D35"/>
<path d="M54.2629 115.859C54.2629 117.344 55.4275 118.548 56.864 118.548C58.3005 118.548 59.4651 117.344 59.4651 115.859C59.4651 114.374 58.3005 113.17 56.864 113.17C55.4275 113.17 54.2629 114.374 54.2629 115.859Z" fill="#C94D35"/>
<path d="M27.1689 115.859C27.1689 117.344 28.3335 118.548 29.77 118.548C31.2066 118.548 32.3711 117.344 32.3711 115.859C32.3711 114.374 31.2066 113.17 29.77 113.17C28.3335 113.17 27.1689 114.374 27.1689 115.859Z" fill="#C94D35"/>
<path d="M0.0742143 115.859C0.0742143 117.344 1.23876 118.548 2.67529 118.548C4.11183 118.548 5.27637 117.344 5.27637 115.859C5.27637 114.374 4.11183 113.17 2.67529 113.17C1.23876 113.17 0.0742144 114.374 0.0742143 115.859Z" fill="#C94D35"/>
<path d="M81.3577 144.096C81.3577 145.581 82.5222 146.785 83.9587 146.785C85.3953 146.785 86.5598 145.581 86.5598 144.096C86.5598 142.611 85.3953 141.407 83.9587 141.407C82.5222 141.407 81.3577 142.611 81.3577 144.096Z" fill="#C94D35"/>
<path d="M54.2629 144.096C54.2629 145.581 55.4275 146.785 56.864 146.785C58.3005 146.785 59.4651 145.581 59.4651 144.096C59.4651 142.611 58.3005 141.407 56.864 141.407C55.4275 141.407 54.2629 142.611 54.2629 144.096Z" fill="#C94D35"/>
<path d="M27.169 144.096C27.169 145.581 28.3335 146.785 29.77 146.785C31.2066 146.785 32.3711 145.581 32.3711 144.096C32.3711 142.611 31.2066 141.407 29.77 141.407C28.3335 141.407 27.169 142.611 27.169 144.096Z" fill="#C94D35"/>
<path d="M0.0742434 144.096C0.0742434 145.581 1.23878 146.785 2.67531 146.785C4.11183 146.785 5.27637 145.581 5.27637 144.096C5.27637 142.611 4.11183 141.407 2.67531 141.407C1.23878 141.407 0.0742435 142.611 0.0742434 144.096Z" fill="#C94D35"/>
<path d="M81.3577 172.332C81.3577 173.817 82.5222 175.021 83.9587 175.021C85.3953 175.021 86.5598 173.817 86.5598 172.332C86.5598 170.847 85.3953 169.643 83.9587 169.643C82.5222 169.643 81.3577 170.847 81.3577 172.332Z" fill="#C94D35"/>
<path d="M54.2629 172.332C54.2629 173.817 55.4275 175.021 56.864 175.021C58.3005 175.021 59.4651 173.817 59.4651 172.332C59.4651 170.847 58.3005 169.643 56.864 169.643C55.4275 169.643 54.2629 170.847 54.2629 172.332Z" fill="#C94D35"/>
<path d="M27.169 172.332C27.169 173.817 28.3335 175.021 29.77 175.021C31.2066 175.021 32.3711 173.817 32.3711 172.332C32.3711 170.847 31.2066 169.643 29.77 169.643C28.3335 169.643 27.169 170.847 27.169 172.332Z" fill="#C94D35"/>
<path d="M0.0742434 172.332C0.0742434 173.817 1.23878 175.021 2.67531 175.021C4.11183 175.021 5.27637 173.817 5.27637 172.332C5.27637 170.847 4.11183 169.643 2.67531 169.643C1.23878 169.643 0.0742435 170.847 0.0742434 172.332Z" fill="#C94D35"/>
<path d="M81.3577 200.569C81.3577 202.054 82.5222 203.258 83.9587 203.258C85.3953 203.258 86.5598 202.054 86.5598 200.569C86.5598 199.084 85.3953 197.88 83.9587 197.88C82.5222 197.88 81.3577 199.084 81.3577 200.569Z" fill="#C94D35"/>
<path d="M54.2629 200.569C54.2629 202.054 55.4275 203.258 56.864 203.258C58.3005 203.258 59.4651 202.054 59.4651 200.569C59.4651 199.084 58.3005 197.88 56.864 197.88C55.4275 197.88 54.2629 199.084 54.2629 200.569Z" fill="#C94D35"/>
<path d="M27.169 200.569C27.169 202.054 28.3335 203.258 29.77 203.258C31.2066 203.258 32.3711 202.054 32.3711 200.569C32.3711 199.084 31.2066 197.88 29.77 197.88C28.3335 197.88 27.169 199.084 27.169 200.569Z" fill="#C94D35"/>
<path d="M0.0742434 200.569C0.0742434 202.054 1.23878 203.258 2.67531 203.258C4.11183 203.258 5.27637 202.054 5.27637 200.569C5.27637 199.084 4.11183 197.88 2.67531 197.88C1.23878 197.88 0.0742435 199.084 0.0742434 200.569Z" fill="#C94D35"/>
</svg>
