<svg width="30" height="30" viewBox="0 0 30 30" fill="none" xmlns="http://www.w3.org/2000/svg">
                        <circle cx="14.8611" cy="14.8611" r="14.8611" fill="#FF9800"/>
                        <path d="M14.3977 17.9953C13.2371 17.8806 12.1906 17.6097 11.2946 16.9457C11.1834 16.8631 11.0687 16.7834 10.9672 16.6911C10.5751 16.3342 10.5355 15.9254 10.8458 15.5042C11.1113 15.1437 11.5569 15.0473 12.0201 15.2542C12.1098 15.2944 12.1953 15.3444 12.2771 15.3982C13.9469 16.4855 16.2408 16.5155 17.9169 15.4471C18.0829 15.3265 18.2604 15.2281 18.4661 15.1779C18.8661 15.0805 19.2392 15.2198 19.4538 15.5514C19.6991 15.9302 19.6959 16.2999 19.3938 16.594C18.9303 17.0448 18.3728 17.371 17.7535 17.5986C17.1678 17.8138 16.5263 17.9221 15.8914 17.994C15.9872 18.0928 16.0324 18.1414 16.0923 18.1985C16.9544 19.0193 17.8203 19.8367 18.6796 20.6601C18.9723 20.9406 19.0335 21.2885 18.8723 21.6148C18.696 21.9714 18.3015 22.206 17.9147 22.1809C17.6696 22.1649 17.4784 22.0493 17.3086 21.8872C16.6581 21.2668 15.9952 20.6578 15.3578 20.0257C15.1723 19.8419 15.0831 19.8767 14.9194 20.0363C14.2649 20.6748 13.5998 21.3035 12.9307 21.9286C12.6303 22.2093 12.2728 22.2598 11.9243 22.0995C11.554 21.9294 11.3183 21.5711 11.3365 21.2111C11.349 20.9675 11.4754 20.7815 11.6518 20.6146C12.505 19.8073 13.3558 18.9979 14.2069 18.1893C14.2632 18.1355 14.3157 18.0784 14.3977 17.9953Z" fill="white"/>
                        <path d="M15.1047 15.182C13.034 15.1753 11.3361 13.5487 11.3482 11.5834C11.3601 9.5965 13.0591 7.99531 15.1502 8.00081C17.2454 8.00616 18.9272 9.63038 18.9167 11.638C18.906 13.5992 17.1963 15.1888 15.1047 15.182ZM16.9865 11.5882C16.9829 10.6124 16.1628 9.83558 15.1351 9.83469C14.0988 9.83365 13.2713 10.6246 13.2793 11.6093C13.287 12.5814 14.1141 13.3527 15.1447 13.3491C16.1721 13.3457 16.99 12.5638 16.9865 11.5882Z" fill="white"/>
                        </svg>