 <svg width="30" height="30" viewBox="0 0 30 30" fill="none" xmlns="http://www.w3.org/2000/svg">
                                <circle cx="15.1389" cy="14.8611" r="14.8611" fill="#48729E"/>
                                <path fill-rule="evenodd" clip-rule="evenodd" d="M15.8751 20.8287C15.8751 20.8287 16.1929 20.7941 16.3557 20.6224C16.5048 20.4651 16.4996 20.1683 16.4996 20.1683C16.4996 20.1683 16.4798 18.7824 17.1353 18.5778C17.7814 18.3766 18.611 19.9181 19.4914 20.5108C20.1564 20.959 20.6612 20.8609 20.6612 20.8609L23.0138 20.8287C23.0138 20.8287 24.2439 20.7543 23.6607 19.8047C23.6125 19.727 23.3205 19.1021 21.912 17.8185C20.4364 16.4748 20.6345 16.6922 22.4108 14.3676C23.4927 12.9521 23.9252 12.0879 23.7899 11.7184C23.6616 11.365 22.8656 11.4588 22.8656 11.4588L20.2176 11.4749C20.2176 11.4749 20.0212 11.4487 19.8756 11.5341C19.7334 11.6178 19.6413 11.8131 19.6413 11.8131C19.6413 11.8131 19.2226 12.9082 18.6635 13.84C17.4842 15.8051 17.013 15.9091 16.8201 15.7874C16.3712 15.5024 16.4832 14.6441 16.4832 14.0345C16.4832 12.1294 16.7778 11.3354 15.9104 11.1299C15.6227 11.0614 15.4107 11.0166 14.6742 11.009C13.7292 10.9997 12.9298 11.0124 12.4767 11.2297C12.1752 11.3743 11.9426 11.6973 12.0847 11.7159C12.2596 11.7387 12.6559 11.8207 12.8661 12.1015C13.1374 12.4642 13.1279 13.2777 13.1279 13.2777C13.1279 13.2777 13.2839 15.5202 12.7635 15.7984C12.4069 15.9895 11.9176 15.5997 10.8658 13.8163C10.3274 12.9031 9.9208 11.8935 9.9208 11.8935C9.9208 11.8935 9.84241 11.7049 9.70199 11.6034C9.53229 11.4808 9.2954 11.4428 9.2954 11.4428L6.77914 11.4588C6.77914 11.4588 6.40097 11.469 6.26227 11.6305C6.13909 11.7734 6.2528 12.0702 6.2528 12.0702C6.2528 12.0702 8.22291 16.5949 10.454 18.8755C12.4999 20.9657 14.8224 20.8287 14.8224 20.8287H15.8751Z" fill="white"/>
                                </svg>