<svg width="117" height="117" viewBox="0 0 117 117" fill="none" xmlns="http://www.w3.org/2000/svg">
<path d="M113.324 43.3264C108.99 39.6898 102.506 40.2588 98.8756 44.5846L89.1191 56.1299V22.6514C89.1191 19.8455 87.9523 17.1282 85.9181 15.1961L72.8977 2.82765C70.9784 1.00433 68.4633 0 65.816 0H10.283C4.61305 0 0 4.61305 0 10.283V106.715C0 112.385 4.61305 116.998 10.283 116.998H78.8363C84.5063 116.998 89.1193 112.385 89.1193 106.715V87.9852C89.5405 87.4864 114.513 57.9064 114.592 57.8134C118.245 53.4597 117.679 46.9799 113.324 43.3264ZM68.5534 8.15573C82.2673 21.183 81.2934 20.2307 81.5504 20.5662H68.5534V8.15573ZM82.2639 106.715C82.2639 108.605 80.7262 110.142 78.8361 110.142H10.283C8.39293 110.142 6.85525 108.605 6.85525 106.715V10.283C6.85525 8.39293 8.39293 6.85525 10.283 6.85525H61.6979V23.9935C61.6979 25.8865 63.2326 27.4212 65.1256 27.4212H82.2639V64.2417C80.7915 65.9839 68.9693 79.9734 67.6914 81.4855C66.6706 82.7021 65.9359 84.1617 65.5671 85.7062L62.3816 99.0415C62.0802 100.304 62.5178 101.629 63.5123 102.464C64.5077 103.299 65.8886 103.499 67.0788 102.983L79.6585 97.5301C80.603 97.1206 81.4839 96.5644 82.2639 95.896V106.715ZM74.1111 84.5102L79.3619 88.9159L78.1942 90.2989C77.8544 90.7043 77.4177 91.0299 76.9321 91.2404L70.6425 93.9668L72.2354 87.2992C72.3584 86.7844 72.6031 86.2978 72.9356 85.9016L74.1111 84.5102ZM83.7839 83.6777L78.5356 79.274C79.0681 78.6439 96.2908 58.2635 97.4819 56.8543L102.719 61.2489L83.7839 83.6777ZM109.347 53.3989L107.142 56.0108L101.907 51.6183L104.12 49.0002C105.328 47.5598 107.481 47.372 108.918 48.5777C110.383 49.8068 110.545 51.9716 109.347 53.3989Z" fill="#C94D35"/>
<path d="M51.4149 20.5656H17.1382C15.2452 20.5656 13.7105 22.1003 13.7105 23.9933C13.7105 25.8863 15.2452 27.421 17.1382 27.421H51.4149C53.308 27.421 54.8427 25.8863 54.8427 23.9933C54.8427 22.1003 53.308 20.5656 51.4149 20.5656Z" fill="#C94D35"/>
<path d="M71.9809 41.3599H17.1382C15.2452 41.3599 13.7105 42.8946 13.7105 44.7876C13.7105 46.6806 15.2452 48.2153 17.1382 48.2153H71.9809C73.8739 48.2153 75.4086 46.6806 75.4086 44.7876C75.4086 42.8946 73.8739 41.3599 71.9809 41.3599Z" fill="#C94D35"/>
<path d="M71.9809 61.9261H17.1382C15.2452 61.9261 13.7105 63.4609 13.7105 65.3539C13.7105 67.2469 15.2452 68.7816 17.1382 68.7816H71.9809C73.8739 68.7816 75.4086 67.2469 75.4086 65.3539C75.4086 63.4606 73.8739 61.9261 71.9809 61.9261Z" fill="#C94D35"/>
<path d="M51.4149 82.4922H17.1382C15.2452 82.4922 13.7105 84.0269 13.7105 85.9199C13.7105 87.8129 15.2452 89.3477 17.1382 89.3477H51.4149C53.308 89.3477 54.8427 87.8129 54.8427 85.9199C54.8427 84.0269 53.308 82.4922 51.4149 82.4922Z" fill="#C94D35"/>
</svg>
