<svg  width="100" height="101" viewBox="0 0 100 101" fill="none" xmlns="http://www.w3.org/2000/svg">
            <path d="M81.0706 4.53202C79.6215 3.08061 77.8979 1.93238 76.0002 1.15434C74.1026 0.376309 72.069 -0.015938 70.0181 0.000495813H15.5845C11.4517 0.0184137 7.48794 1.64355 4.53202 4.53202C3.08061 5.98109 1.93238 7.70474 1.15434 9.60239C0.376309 11.5 -0.015938 13.5336 0.000495813 15.5845V85.0191C0.0184137 89.1519 1.64355 93.1157 4.53202 96.0716C5.98109 97.523 7.70474 98.6712 9.60239 99.4493C11.5 100.227 13.5336 100.62 15.5845 100.603H55.4875C56.235 100.603 56.9519 100.306 57.4804 99.7776C58.009 99.2491 58.3059 98.5322 58.3059 97.7847C58.3059 97.0372 58.009 96.3204 57.4804 95.7918C56.9519 95.2633 56.235 94.9663 55.4875 94.9663H15.474V94.7453C14.199 94.7402 12.9374 94.4838 11.7616 93.9908C10.5858 93.4977 9.51869 92.7775 8.62145 91.8716C6.86697 90.0191 5.87965 87.5705 5.85832 85.0191V15.5845C5.85281 14.3243 6.10487 13.0762 6.59902 11.9168C7.09317 10.7574 7.819 9.71128 8.73197 8.84249C9.62921 7.93657 10.6963 7.21647 11.8721 6.72337C13.048 6.23028 14.3095 5.97388 15.5845 5.96885H70.0181C72.5907 5.99121 75.0517 7.02311 76.8708 8.8423C78.69 10.6615 79.7219 13.1224 79.7443 15.695V53.2141C79.7428 53.5997 79.8175 53.9817 79.9641 54.3383C80.1106 54.695 80.3261 55.0192 80.5982 55.2923C80.8704 55.5655 81.1937 55.7822 81.5498 55.9301C81.9059 56.078 82.2876 56.1541 82.6732 56.1541C83.0578 56.1541 83.4387 56.0783 83.794 55.9311C84.1494 55.7839 84.4723 55.5682 84.7443 55.2962C85.0162 55.0242 85.232 54.7014 85.3792 54.346C85.5264 53.9907 85.6021 53.6098 85.6021 53.2252V15.5845C85.5842 11.4517 83.9591 7.48794 81.0706 4.53202Z" fill="#C94D35"/>
            <path d="M97.984 97.2275C96.9496 98.4939 95.4233 99.22 93.7961 99.22H67.5442C65.9081 99.22 64.377 98.4945 63.3437 97.2296C62.3041 95.9569 61.9003 94.3033 62.2358 92.6932C63.1043 88.525 65.4045 84.7324 68.7124 82.0138C69.9652 80.9843 71.3419 80.1275 72.8016 79.4579C71.175 77.617 70.1857 75.205 70.1857 72.5659C70.1857 66.8059 74.8887 62.1204 80.6701 62.1204C86.4516 62.1204 91.1545 66.8059 91.1545 72.5659C91.1545 75.205 90.1653 77.617 88.5387 79.4579C89.9984 80.1275 91.3751 80.9838 92.6279 82.0138C95.8696 84.678 98.1431 88.3738 99.0504 92.4431C99.0714 92.5137 99.0893 92.5849 99.1045 92.6576C99.4416 94.2771 99.0331 95.9427 97.984 97.2275ZM75.5624 72.5659C75.5624 75.3718 77.8537 77.6547 80.6701 77.6547C83.4866 77.6547 85.7779 75.3718 85.7779 72.5659C85.7779 69.7599 83.4866 67.477 80.6701 67.477C77.8537 67.477 75.5624 69.7599 75.5624 72.5659ZM93.8413 93.7875C93.8408 93.7859 93.8402 93.7823 93.8402 93.7823C92.5491 87.5881 87.0102 83.0919 80.6701 83.0919C74.33 83.0919 68.7907 87.5881 67.5001 93.7823C67.488 93.8424 67.5295 93.8623 67.5295 93.8623C67.5295 93.8623 67.5352 93.8634 67.5442 93.8634H93.7961C93.7977 93.8618 93.8339 93.8346 93.8413 93.7875Z" fill="#C94D35"/>
            <path d="M67.9498 39.688H17.8016C16.0707 39.688 14.6673 41.0913 14.6673 42.8223C14.6673 44.5533 16.0707 45.9566 17.8016 45.9566H67.9498C69.6807 45.9566 71.0841 44.5533 71.0841 42.8223C71.0841 41.0913 69.6807 39.688 67.9498 39.688Z" fill="#C94D35"/>
            <path d="M67.9498 22.4324H17.8016C16.0707 22.4324 14.6673 23.8357 14.6673 25.5667C14.6673 27.2977 16.0707 28.701 17.8016 28.701H67.9498C69.6807 28.701 71.0841 27.2977 71.0841 25.5667C71.0841 23.8357 69.6807 22.4324 67.9498 22.4324Z" fill="#C94D35"/>
            <path d="M55.4098 56.9437H17.064C15.7404 56.9437 14.6673 58.3471 14.6673 60.078C14.6673 61.809 15.7404 63.2124 17.064 63.2124H55.4098C56.7334 63.2124 57.8065 61.809 57.8065 60.078C57.8065 58.3469 56.7334 56.9437 55.4098 56.9437Z" fill="#C94D35"/>
            <path d="M43.1391 74.1993H17.2557C15.8262 74.1993 14.6673 75.6027 14.6673 77.3337C14.6673 79.0646 15.8262 80.468 17.2557 80.468H43.1391C44.5686 80.468 45.7275 79.0646 45.7275 77.3337C45.7275 75.6027 44.5686 74.1993 43.1391 74.1993Z" fill="#C94D35"/>
            </svg>